<svg xmlns="http://www.w3.org/2000/svg" width="35.969" height="42.63" viewBox="0 0 35.969 42.63"><path d="M75.969,37.635A1.665,1.665,0,0,1,74.3,39.3H72.639v1.665a1.665,1.665,0,0,1-3.33,0V39.3H67.643a1.665,1.665,0,1,1,0-3.331h1.665V34.3a1.665,1.665,0,0,1,3.33,0v1.665H74.3A1.665,1.665,0,0,1,75.969,37.635Zm0-25.978V27.643a1.665,1.665,0,1,1-3.33,0V13.322h-3.33v5a1.665,1.665,0,0,1-3.331,0v-5H49.991v5a1.665,1.665,0,0,1-3.331,0v-5h-3.33V39.3H60.982a1.665,1.665,0,1,1,0,3.33H41.665A1.665,1.665,0,0,1,40,40.965V11.657a1.665,1.665,0,0,1,1.665-1.665H46.74a11.324,11.324,0,0,1,22.49,0H74.3A1.665,1.665,0,0,1,75.969,11.657Zm-10.1-1.665a7.993,7.993,0,0,0-15.763,0Z" transform="translate(-40)" fill="#fff"/></svg>