<svg xmlns="http://www.w3.org/2000/svg" width="25.912" height="25.912" viewBox="0 0 25.912 25.912"><g transform="translate(7 9.49)"><g transform="translate(-7 -9.49)"><path d="M199.022,115.368h-8.1v-8.1a1.62,1.62,0,0,0-1.619-1.619h-3.239a1.62,1.62,0,0,0-1.619,1.619v8.1h-8.1a1.62,1.62,0,0,0-1.619,1.619v1.619l10.731,2.225,2.225,10.731h1.62a1.62,1.62,0,0,0,1.619-1.619v-8.1h8.1a1.62,1.62,0,0,0,1.62-1.619v-3.239A1.619,1.619,0,0,0,199.022,115.368Z" transform="translate(-174.73 -105.651)" fill="#1bafab"/><path d="M174.73,170.667v1.619a1.62,1.62,0,0,0,1.619,1.619h8.1V182a1.619,1.619,0,0,0,1.619,1.619h1.62v-9.717a3.239,3.239,0,0,0-3.239-3.239Z" transform="translate(-174.729 -157.711)" fill="#2e7c86"/></g></g></svg>