<svg xmlns="http://www.w3.org/2000/svg" width="18.133" height="19.441" viewBox="0 0 18.133 19.441"><g transform="translate(-43.481)"><g transform="translate(43.481)"><path d="M58.737,1.475,56.5.328,54.265,1.475,52.029.328,49.793,1.475,46.917,0V15.287H43.481v2.055a2.243,2.243,0,0,0,2.358,2.1H59.255a2.243,2.243,0,0,0,2.358-2.1V0ZM45.839,18.3a1.025,1.025,0,0,1-1.078-.959v-.915H56.9v.915a1.9,1.9,0,0,0,.261.959Zm13.416,0a1.025,1.025,0,0,1-1.078-.959V15.287H48.2V1.972l1.6.818,2.236-1.147,2.236,1.147L56.5,1.644l2.236,1.147,1.6-.818V17.342h0A1.025,1.025,0,0,1,59.255,18.3Z" transform="translate(-43.481)" fill="#d65246"/></g><g transform="translate(49.479 5.105)"><rect width="9.573" height="1.281" fill="#d65246"/></g><g transform="translate(49.479 7.262)"><rect width="9.573" height="1.281" fill="#d65246"/></g><g transform="translate(49.479 9.419)"><rect width="4.787" height="1.281" fill="#d65246"/></g></g></svg>