<svg xmlns="http://www.w3.org/2000/svg" width="15.449" height="15.449" viewBox="0 0 15.449 15.449"><g transform="translate(1170.775 5195.473)"><path d="M16.012,8.287A7.725,7.725,0,1,1,8.287.563,7.725,7.725,0,0,1,16.012,8.287Z" transform="translate(-1171.337 -5196.035)" fill="#fff"/><g transform="translate(-1168 -5276.334)"><path d="M0,212.905v2.626A1.369,1.369,0,0,0,1.369,216.9H8.778a1.369,1.369,0,0,0,1.369-1.369v-2.626a.238.238,0,0,0-.238-.238H.238A.238.238,0,0,0,0,212.905Zm2.533,1.667H1.9a.417.417,0,1,1,0-.833h.635a.417.417,0,1,1,0,.833Z" transform="translate(0 -124.806)" fill="#39bf11"/><path d="M10.147,86.789V86.7a1.369,1.369,0,0,0-1.369-1.369H1.369A1.369,1.369,0,0,0,0,86.7v.086a.238.238,0,0,0,.238.238H9.909A.238.238,0,0,0,10.147,86.789Z" transform="translate(0 0)" fill="#39bf11"/></g></g></svg>