<svg xmlns="http://www.w3.org/2000/svg" width="25.176" height="24.852" viewBox="0 0 25.176 24.852">
  <g id="Group_1769" data-name="Group 1769" transform="translate(-33.35 -322.35)">
    <g id="Group_1768" data-name="Group 1768" transform="translate(7.563 -80)">
      <g id="patient" transform="translate(23.136 401.19)">
        <circle id="Ellipse_138" data-name="Ellipse 138" cx="5.33" cy="5.33" r="5.33" transform="translate(6.78 1.81)" fill="none" stroke="#45b5af" stroke-miterlimit="10" stroke-width="1.3"/>
        <path id="Path_1336" data-name="Path 1336" d="M3.3,22.19V21.1a8.72,8.72,0,0,1,8.81-8.63,8.72,8.72,0,0,1,8.81,8.63v1.09" fill="none" stroke="#45b5af" stroke-linecap="round" stroke-miterlimit="10" stroke-width="1.3"/>
      </g>
      <path id="Icon_material-person-add" data-name="Icon material-person-add" d="M25.917,19.136a6.568,6.568,0,1,0-6.568-6.568A6.566,6.566,0,0,0,25.917,19.136Z" transform="translate(17.978 407.566)" fill="#1bafab" stroke="#fff" stroke-width="1"/>
      <path id="Icon_material-person-add-2" data-name="Icon material-person-add" d="M6.326,14.25v-2.9H4.4v2.9H1.5v1.93H4.4v2.9h1.93v-2.9h2.9V14.25Z" transform="translate(38.336 404.72)" fill="#fff"/>
    </g>
  </g>
</svg>
