<svg xmlns="http://www.w3.org/2000/svg" width="25.608" height="33.611" viewBox="0 0 25.608 33.611">
  <g id="health-check" transform="translate(-60.952)">
    <path id="Path_1263" data-name="Path 1263" d="M116.4,73.143h-.533L93.46,100.885v.534a.534.534,0,0,0,.534.534H116.4a.534.534,0,0,0,.533-.534V73.676A.533.533,0,0,0,116.4,73.143Z" transform="translate(-30.374 -68.341)" fill="#1bafab"/>
    <path id="Path_1264" data-name="Path 1264" d="M93.993,73.143a.534.534,0,0,0-.533.534v27.209h20.807a1.6,1.6,0,0,0,1.6-1.6V73.143Z" transform="translate(-30.374 -68.341)" fill="#2e7c86"/>
    <path id="Path_1265" data-name="Path 1265" d="M91.486,40.635H69.612a.533.533,0,0,0-.533.534V68.377a.533.533,0,0,0,.533.534H91.486a.534.534,0,0,0,.534-.534V41.169A.533.533,0,0,0,91.486,40.635Z" transform="translate(-7.593 -37.967)" fill="#fff"/>
    <path id="Path_1266" data-name="Path 1266" d="M104.788,1.6a1.6,1.6,0,1,0-3.2,0V4.8a1.6,1.6,0,1,0,3.2,0,.534.534,0,1,0-1.067,0,.533.533,0,1,1-1.067,0V1.6a.533.533,0,1,1,1.067,0l.552.459Z" transform="translate(-37.967)" fill="#1bafab"/>
    <path id="Path_1267" data-name="Path 1267" d="M182.733,108.852h-2.668v-2.668a.534.534,0,0,0-.533-.534h-1.067a.534.534,0,0,0-.533.534v2.668h-2.668a.534.534,0,0,0-.534.533v.534l3.535.733.733,3.535h.534a.534.534,0,0,0,.533-.534v-2.668h2.668a.534.534,0,0,0,.534-.534v-1.067A.533.533,0,0,0,182.733,108.852Z" transform="translate(-106.309 -98.715)" fill="#1bafab"/>
    <path id="Path_1268" data-name="Path 1268" d="M194.061,293.638H183.39a.534.534,0,0,1,0-1.067h10.67a.534.534,0,1,1,0,1.067Z" transform="translate(-113.902 -273.365)" fill="#1bafab"/>
    <path id="Path_1269" data-name="Path 1269" d="M119.975,293.638h-1.6a.534.534,0,0,1,0-1.067h1.6a.534.534,0,0,1,0,1.067Z" transform="translate(-53.154 -273.365)" fill="#2e7c86"/>
    <path id="Path_1270" data-name="Path 1270" d="M194.061,342.4H183.39a.534.534,0,0,1,0-1.067h10.67a.534.534,0,1,1,0,1.067Z" transform="translate(-113.902 -318.926)" fill="#1bafab"/>
    <path id="Path_1271" data-name="Path 1271" d="M194.061,391.162H183.39a.534.534,0,0,1,0-1.067h10.67a.534.534,0,0,1,0,1.067Z" transform="translate(-113.902 -364.487)" fill="#1bafab"/>
    <path id="Path_1272" data-name="Path 1272" d="M119.975,342.4h-1.6a.534.534,0,0,1,0-1.067h1.6a.534.534,0,0,1,0,1.067Z" transform="translate(-53.154 -318.926)" fill="#2e7c86"/>
    <path id="Path_1273" data-name="Path 1273" d="M119.975,391.162h-1.6a.534.534,0,0,1,0-1.067h1.6a.534.534,0,0,1,0,1.067Z" transform="translate(-53.154 -364.487)" fill="#2e7c86"/>
    <path id="Path_1274" data-name="Path 1274" d="M65.22,68.377a3.2,3.2,0,0,1-3.2-3.2V40.635h-.534a.534.534,0,0,0-.534.534V68.911a.534.534,0,0,0,.534.534H83.893a.534.534,0,0,0,.534-.534v-.534Z" transform="translate(0 -37.967)" fill="#e0e3f1"/>
    <path id="Path_1275" data-name="Path 1275" d="M174.73,170.667v.534a.534.534,0,0,0,.534.534h2.668V174.4a.534.534,0,0,0,.534.533H179v-3.2a1.067,1.067,0,0,0-1.067-1.067Z" transform="translate(-106.309 -159.463)" fill="#2e7c86"/>
    <path id="Path_1276" data-name="Path 1276" d="M134.1,24.381h1.067v1.067H134.1Z" transform="translate(-68.341 -22.78)" fill="#1bafab"/>
  </g>
</svg>
