<svg xmlns="http://www.w3.org/2000/svg" width="14.609" height="21.371" viewBox="0 0 14.609 21.371">
  <g id="microphone" transform="translate(-81)">
    <path id="Path_1364" data-name="Path 1364" d="M149.383,14.651h.5a4.388,4.388,0,0,0,4.383-4.383V4.425A4.409,4.409,0,0,0,149.884,0h-.5A4.409,4.409,0,0,0,145,4.417v5.852A4.388,4.388,0,0,0,149.383,14.651Zm0-13.4h.5a3.15,3.15,0,0,1,3.108,2.8h-1.021a.626.626,0,0,0,0,1.252h1.044V6.72H151.3a.626.626,0,0,0,0,1.252h1.711V9.392h-1.044a.626.626,0,0,0,0,1.252h1.02a3.135,3.135,0,0,1-3.107,2.755h-.5a3.135,3.135,0,0,1-3.107-2.755h1.02a.626.626,0,0,0,0-1.252h-1.044V7.973h1.711a.626.626,0,1,0,0-1.252h-1.711V5.3H147.3a.626.626,0,0,0,0-1.252h-1.021A3.15,3.15,0,0,1,149.383,1.252Z" transform="translate(-61.329)" fill="#1bafab"/>
    <path id="Path_1365" data-name="Path 1365" d="M95.609,225.626a.626.626,0,1,0-1.252,0,6.052,6.052,0,0,1-12.1,0,.626.626,0,1,0-1.252,0,7.314,7.314,0,0,0,6.679,7.278v2.824H84.3a.626.626,0,0,0,0,1.252h8.014a.626.626,0,1,0,0-1.252H88.931V232.9A7.314,7.314,0,0,0,95.609,225.626Z" transform="translate(0 -215.608)" fill="#2e7c86"/>
  </g>
</svg>
