<svg xmlns="http://www.w3.org/2000/svg" width="18.972" height="25.296" viewBox="0 0 18.972 25.296">
  <g id="prescription" transform="translate(-64)">
    <g id="Group_1797" data-name="Group 1797" transform="translate(64)">
      <g id="Group_1796" data-name="Group 1796" transform="translate(0)">
        <g id="Group_1795" data-name="Group 1795">
          <path id="Path_1349" data-name="Path 1349" d="M195.162,193.581A1.583,1.583,0,0,0,193.581,192H192v3.162h1.581A1.583,1.583,0,0,0,195.162,193.581Z" transform="translate(-185.676 -182.514)" fill="#fff"/>
          <path id="Path_1350" data-name="Path 1350" d="M82.817,5.424,77.548.155A.525.525,0,0,0,77.175,0H66.108A2.11,2.11,0,0,0,64,2.108v21.08A2.11,2.11,0,0,0,66.108,25.3H80.864a2.11,2.11,0,0,0,2.108-2.108V5.8A.525.525,0,0,0,82.817,5.424ZM77.6,20.247a.527.527,0,1,1-.857.612l-1.584-2.217-1.792,2.24a.527.527,0,0,1-.823-.659l1.979-2.473L71.634,13.7h-1.31v2.635a.527.527,0,1,1-1.054,0V8.959a.527.527,0,0,1,.527-.527h2.108a2.629,2.629,0,0,1,.9,5.1l2.4,3.363,1.553-1.942a.527.527,0,0,1,.823.659l-1.74,2.175ZM78.756,5.27A1.055,1.055,0,0,1,77.7,4.216V1.8L81.173,5.27Z" transform="translate(-64)" fill="#fff"/>
        </g>
      </g>
    </g>
  </g>
</svg>
