<svg xmlns="http://www.w3.org/2000/svg" width="17.561" height="19.818" viewBox="0 0 17.561 19.818">
  <g id="Group_1821" data-name="Group 1821" transform="translate(0 0)">
    <path id="Path_1376" data-name="Path 1376" d="M52.956,258.423a2.08,2.08,0,0,1-1.912,2.074c-.056,0-.113.007-.169.007a2.064,2.064,0,0,1-.425-.044H37.913a2.061,2.061,0,0,1-.425.044h0a2.081,2.081,0,0,1-.194-4.153,1.91,1.91,0,0,1,.2-.009,2.108,2.108,0,0,1,.258.016H50.617a2.109,2.109,0,0,1,.258-.016,2.081,2.081,0,0,1,2.081,2.081Z" transform="translate(-35.407 -246.279)" fill="#ffd0a6"/>
    <path id="Path_1377" data-name="Path 1377" d="M95.987,256.376v2.636a5.82,5.82,0,0,1-.193,1.487c-.056,0-.113.007-.169.007a2.06,2.06,0,0,1-.425-.044H82.663a2.061,2.061,0,0,1-.425.044h0a5.833,5.833,0,0,1-.194-1.494v-2.659a1.9,1.9,0,0,1,.2-.009,2.108,2.108,0,0,1,.258.016H95.367a2.109,2.109,0,0,1,.258-.016A2.067,2.067,0,0,1,95.987,256.376Z" transform="translate(-80.157 -246.281)" fill="#e8b182"/>
    <path id="Path_1378" data-name="Path 1378" d="M110.083,82.821v4.326a6.352,6.352,0,0,1-12.7,0V82.821a6.352,6.352,0,1,1,12.7,0Z" transform="translate(-94.873 -73.68)" fill="#e8b182"/>
    <path id="Path_1379" data-name="Path 1379" d="M167.328,85.538v4.326a6.354,6.354,0,0,1-5.145,6.237,6.354,6.354,0,0,1-5.145-6.237V85.538a6.354,6.354,0,0,1,5.145-6.237,6.354,6.354,0,0,1,5.145,6.237Z" transform="translate(-152.118 -76.397)" fill="#ffd0a6"/>
    <path id="Path_1380" data-name="Path 1380" d="M110.085,82.82v.938c-7.52-.009-10.019-3.085-10.019-3.085a3.778,3.778,0,0,1-2.684,3.085V82.82a6.352,6.352,0,1,1,12.7,0Z" transform="translate(-94.876 -73.679)" fill="#1bafab"/>
    <path id="Path_1381" data-name="Path 1381" d="M104.933,76.583a6.364,6.364,0,0,0-4.8,4.171c-.049-.052-.072-.08-.072-.08a3.778,3.778,0,0,1-2.684,3.085V82.82a6.357,6.357,0,0,1,7.558-6.237Z" transform="translate(-94.869 -73.679)" fill="#6fa8af"/>
    <path id="Path_1382" data-name="Path 1382" d="M314.033,7.834l-2.2,4.518a.442.442,0,0,0,.4.636h1.41L312.6,15.75a.435.435,0,0,0,.68.492l4.723-3.8a.454.454,0,0,0-.285-.807h-1.549l1.84-3.245a.593.593,0,0,0-.516-.886h-2.926A.593.593,0,0,0,314.033,7.834Z" transform="translate(-300.611 -7.5)" fill="#2e7c86"/>
  </g>
</svg>
