<svg xmlns="http://www.w3.org/2000/svg" width="32" height="32" viewBox="0 0 32 32"><g transform="translate(-1.002 0.001)"><circle cx="16" cy="16" r="16" transform="translate(1.002 -0.001)" fill="#1bafab"/><path d="M65.527,31.786a2.987,2.987,0,0,0,2-2.816V2.982A2.983,2.983,0,0,0,64.547,0H53.37a2.984,2.984,0,0,0-2.977,2.983V25.439h0A15.886,15.886,0,0,0,65.527,31.786Z" transform="translate(-46.309)" fill="#666"/><path d="M50.393,2.984V25.44a16.028,16.028,0,0,0,1.649,1.912V2.984A2.983,2.983,0,0,1,55.019,0H53.37A2.984,2.984,0,0,0,50.393,2.984Z" transform="translate(-46.309 -0.002)" fill="#5a5b5b"/><path d="M89.328,26.483H87.794a.357.357,0,0,0-.356.357V27.3a.772.772,0,0,1-.769.77h-5.86a.772.772,0,0,1-.769-.77v-.316a.5.5,0,0,0-.5-.5H78.151a1.329,1.329,0,0,0-1.328,1.33V52.182a15.961,15.961,0,0,0,4,2.887h8.509a1.329,1.329,0,0,0,1.328-1.33V27.813A1.329,1.329,0,0,0,89.328,26.483Z" transform="translate(-71.089 -24.831)" fill="#f9f6ed"/><path d="M78.152,26.477a1.329,1.329,0,0,0-1.328,1.33V52.176a16.018,16.018,0,0,0,1.584,1.375V27.807a1.329,1.329,0,0,1,1.21-1.324C79.54,26.471,79.623,26.479,78.152,26.477Z" transform="translate(-71.09 -24.825)" fill="#eae4d6"/><g transform="translate(10.085 1.17)"><path d="M173.723,19.734h-2.508a.481.481,0,0,1,0-.963h2.508a.481.481,0,0,1,0,.963Z" transform="translate(-169.225 -18.771)" fill="#7f7e7d"/><path d="M146.754,19.646a.48.48,0,1,1,.36.072A.771.771,0,0,1,146.754,19.646Z" transform="translate(-146.541 -18.764)" fill="#7f7e7d"/></g><path d="M103.817,436.391h-1.285a.215.215,0,0,1-.214-.214v-1.288a.215.215,0,0,1,.214-.214h1.285a.215.215,0,0,1,.214.214v1.288A.215.215,0,0,1,103.817,436.391Z" transform="translate(-94.993 -407.547)" fill="#0eb0ff"/><path d="M152.3,436.391h-1.285a.215.215,0,0,1-.214-.214v-1.288a.215.215,0,0,1,.214-.214H152.3a.215.215,0,0,1,.214.214v1.288A.215.215,0,0,1,152.3,436.391Z" transform="translate(-140.454 -407.547)" fill="#ffc30a"/><path d="M200.79,436.391h-1.285a.215.215,0,0,1-.214-.214v-1.288a.215.215,0,0,1,.214-.214h1.285a.215.215,0,0,1,.214.214v1.288A.215.215,0,0,1,200.79,436.391Z" transform="translate(-185.914 -407.547)" fill="#e0d5bd"/><path d="M249.276,436.391h-1.285a.215.215,0,0,1-.214-.214v-1.288a.215.215,0,0,1,.214-.214h1.285a.215.215,0,0,1,.214.214v1.288A.215.215,0,0,1,249.276,436.391Z" transform="translate(-231.374 -407.547)" fill="#fe3f4e"/><path d="M169.282,147.515V139.06h0v-1.175h0v-2.665a.645.645,0,0,0-.643-.644H147.186a.645.645,0,0,0-.643.644v2.665h0v2.349h0v7.28a.645.645,0,0,0,.643.643h21.453A.645.645,0,0,0,169.282,147.515Z" transform="translate(-136.457 -126.179)" fill="#0eb0ff"/><g transform="translate(10.085 8.398)"><path d="M169.282,147.515V139.06h0v-1.175h0v-2.665a.645.645,0,0,0-.643-.644H147.186a.645.645,0,0,0-.643.644v2.665h0v2.349h0v7.28a.645.645,0,0,0,.643.643h21.453A.645.645,0,0,0,169.282,147.515Z" transform="translate(-146.542 -134.577)" fill="#0eb0ff"/></g><path d="M149.926,147.516V135.221a.645.645,0,0,1,.643-.644h-3.385a.645.645,0,0,0-.644.644v12.294a.645.645,0,0,0,.644.644h3.385A.645.645,0,0,1,149.926,147.516Z" transform="translate(-136.456 -126.18)" fill="#009cf7"/><path d="M386.256,262.864a1.962,1.962,0,0,1,.506-2.538,1.964,1.964,0,1,0,0,3.113A1.954,1.954,0,0,1,386.256,262.864Z" transform="translate(-358.725 -243.7)" fill="#fe3f4e"/><path d="M384.867,262.63a1.962,1.962,0,0,1,.718-2.68l.023-.012a1.961,1.961,0,1,0,.917,3.672A1.961,1.961,0,0,1,384.867,262.63Z" transform="translate(-358.725 -243.716)" fill="#fa243a"/><path d="M437.051,260.9a1.959,1.959,0,0,0-2.892-.576,1.962,1.962,0,0,1,0,3.114,1.962,1.962,0,0,0,2.893-2.538Z" transform="translate(-406.123 -243.7)" fill="#ffc30a"/><path d="M423.13,266.99a1.391,1.391,0,0,0-.506,2.538A1.956,1.956,0,0,0,423.13,266.99Z" transform="translate(-394.589 -249.788)" fill="#ff7110"/><path d="M179.432,282.682h1.446a.619.619,0,1,0,0-1.237h-1.446a.619.619,0,1,0,0,1.237Z" transform="translate(-166.714 -263.881)" fill="#e6e6e6"/><path d="M179.881,282.064a.621.621,0,0,1,.619-.619h-1.067a.619.619,0,1,0,0,1.237H180.5A.621.621,0,0,1,179.881,282.064Z" transform="translate(-166.715 -263.881)" fill="#ccc"/><path d="M239.256,282.682H240.7a.619.619,0,1,0,0-1.237h-1.446a.619.619,0,1,0,0,1.237Z" transform="translate(-222.804 -263.881)" fill="#e6e6e6"/><path d="M239.7,282.064a.621.621,0,0,1,.619-.619h-1.067a.619.619,0,1,0,0,1.237h1.067A.621.621,0,0,1,239.7,282.064Z" transform="translate(-222.804 -263.881)" fill="#ccc"/><path d="M299.08,282.682h1.446a.619.619,0,0,0,0-1.237H299.08a.619.619,0,1,0,0,1.237Z" transform="translate(-278.895 -263.881)" fill="#e6e6e6"/><path d="M299.528,282.064a.621.621,0,0,1,.619-.619H299.08a.619.619,0,1,0,0,1.237h1.067A.621.621,0,0,1,299.528,282.064Z" transform="translate(-278.895 -263.881)" fill="#ccc"/><path d="M182.029,179.441h-2.607a.61.61,0,0,1-.608-.608v-1.3a.61.61,0,0,1,.608-.608h2.607a.61.61,0,0,1,.608.608v1.3A.61.61,0,0,1,182.029,179.441Z" transform="translate(-166.715 -165.886)" fill="#ffc30a"/><path d="M180.5,178.832v-1.3a.61.61,0,0,1,.608-.608h-1.685a.61.61,0,0,0-.608.608v1.3a.61.61,0,0,0,.608.608h1.685A.61.61,0,0,1,180.5,178.832Z" transform="translate(-166.715 -165.886)" fill="#ffa01a"/><path d="M478.4,157.067a.422.422,0,0,0-.421.421v4.337a.421.421,0,1,0,.843,0v-4.337A.423.423,0,0,0,478.4,157.067Z" transform="translate(-447.211 -147.265)" fill="#50d1dc"/></g></svg>