<svg xmlns="http://www.w3.org/2000/svg" width="21.643" height="20.336" viewBox="0 0 21.643 20.336">
  <path id="video-player" d="M21.643,10.743A1.743,1.743,0,0,0,19.9,9H1.743A1.743,1.743,0,0,0,0,10.743v16.85a1.743,1.743,0,0,0,1.743,1.743H19.9a1.743,1.743,0,0,0,1.743-1.743Zm-15.034.436H9.732v2.469H6.609ZM4.43,27.157H2.179V24.688H4.43Zm0-13.509H2.179V11.179H4.43Zm5.3,13.509H6.609V24.688H9.732Zm-.8-5.977V17.156c0-.6.426-.821.927-.493l2.922,1.908a.662.662,0,0,1,0,1.194L9.859,21.673C9.357,22,8.933,21.78,8.933,21.18Zm6.1,5.977H11.911V24.688h3.123Zm0-13.509H11.911V11.179h3.123Zm4.43,13.509H17.213V24.688h2.251Zm0-13.509H17.213V11.179h2.251Z" transform="translate(0 -9)" fill="#f25f5f"/>
</svg>
