<svg xmlns="http://www.w3.org/2000/svg" width="19.563" height="22.357" viewBox="0 0 19.563 22.357"><path d="M19.039,6.987H.524A.526.526,0,0,1,0,6.463V4.891a2.1,2.1,0,0,1,2.1-2.1h2.1V.524A.526.526,0,0,1,4.716,0H6.463a.526.526,0,0,1,.524.524V2.795h5.589V.524A.526.526,0,0,1,13.1,0h1.747a.526.526,0,0,1,.524.524V2.795h2.1a2.1,2.1,0,0,1,2.1,2.1V6.463A.526.526,0,0,1,19.039,6.987ZM.524,8.384H19.039a.526.526,0,0,1,.524.524V20.261a2.1,2.1,0,0,1-2.1,2.1H2.1a2.1,2.1,0,0,1-2.1-2.1V8.908A.526.526,0,0,1,.524,8.384Zm13.8,6.113a.526.526,0,0,0-.524-.524h-2.62v-2.62a.526.526,0,0,0-.524-.524H8.908a.526.526,0,0,0-.524.524v2.62H5.764a.526.526,0,0,0-.524.524v1.747a.526.526,0,0,0,.524.524h2.62v2.62a.526.526,0,0,0,.524.524h1.747a.526.526,0,0,0,.524-.524v-2.62H13.8a.526.526,0,0,0,.524-.524Z" fill="#fff"/></svg>