<svg xmlns="http://www.w3.org/2000/svg" width="26.798" height="26.545" viewBox="0 0 26.798 26.545">
  <g id="Group_1767" data-name="Group 1767" transform="translate(-63 -120.113)">
    <g id="Group_1694" data-name="Group 1694" transform="translate(63 121.92)">
      <rect id="Rectangle_442" data-name="Rectangle 442" width="25" height="23" transform="translate(1 1.08)" fill="#fff"/>
      <rect id="Rectangle_441" data-name="Rectangle 441" width="23.277" height="0.754" transform="translate(1.611 6.993)" fill="#45b5af" stroke="#45b5af" stroke-width="1"/>
      <path id="Path_1280" data-name="Path 1280" d="M11.761,19.324a1.022,1.022,0,0,1-.728-.305L8.685,16.788a1.054,1.054,0,1,1,1.5-1.479l1.562,1.515,3.229-3.288a1.045,1.045,0,0,1,1.479,0,1.057,1.057,0,0,1,0,1.479l-3.969,3.992A1.01,1.01,0,0,1,11.761,19.324Z" transform="translate(0.499 -1.427)" fill="#2e7c86"/>
      <path id="Path_1281" data-name="Path 1281" d="M11.976,19.711a1.086,1.086,0,0,1-.774-.325L8.7,17.014a1.121,1.121,0,1,1,1.6-1.573l1.661,1.611,3.434-3.5a1.111,1.111,0,0,1,1.573,0,1.124,1.124,0,0,1,0,1.573L12.75,19.374A1.074,1.074,0,0,1,11.976,19.711Z" transform="translate(0.499 -0.693)" fill="#1bafab"/>
      <path id="Path_1277" data-name="Path 1277" d="M25.571,27.928H3.768a2.5,2.5,0,0,1-2.5-2.5V5.688a2.5,2.5,0,0,1,2.5-2.5h21.8a2.5,2.5,0,0,1,2.5,2.5V25.43A2.5,2.5,0,0,1,25.571,27.928ZM3.768,5.45a.225.225,0,0,0-.225.212V25.43a.237.237,0,0,0,.225.225h21.8a.237.237,0,0,0,.225-.225V5.688a.225.225,0,0,0-.225-.237Z" transform="translate(-1.27 -3.19)" fill="#45b5af"/>
    </g>
    <path id="Path_1282" data-name="Path 1282" d="M105.044,1.729a1.729,1.729,0,1,0-3.457,0V5.186a1.729,1.729,0,1,0,3.457,0,.576.576,0,1,0-1.152,0,.576.576,0,1,1-1.152,0V1.729a.576.576,0,1,1,1.152,0h1.152Z" transform="translate(-31.156 120.213)" fill="#2e7c86" stroke="#e8e8e8" stroke-width="0.2"/>
    <path id="Path_1283" data-name="Path 1283" d="M105.044,1.729a1.729,1.729,0,1,0-3.457,0V5.186a1.729,1.729,0,1,0,3.457,0,.576.576,0,1,0-1.152,0,.576.576,0,1,1-1.152,0V1.729a.576.576,0,1,1,1.152,0h1.152Z" transform="translate(-23.814 120.213)" fill="#2e7c86" stroke="#e8e8e8" stroke-width="0.2"/>
  </g>
</svg>
