<svg xmlns="http://www.w3.org/2000/svg" width="30.165" height="34.281" viewBox="0 0 30.165 34.281"><g transform="translate(-1074.831 3622.281)"><g transform="translate(1107.831 -3631.279)"><path d="M30.75,6H29.68c0,.151-19.2,0-19.2,0H9.415A4.278,4.278,0,0,0,5,10.114v26.05a4.278,4.278,0,0,0,4.415,4.113H30.75a4.278,4.278,0,0,0,4.415-4.113V10.114A4.278,4.278,0,0,0,30.75,6Z" transform="translate(-38 3)" fill="#2fbda7"/></g><g transform="translate(1110.79 -3628.772)"><path d="M25.7,6h-.86c0,.121-15.429,0-15.429,0h-.86A3.438,3.438,0,0,0,5,9.306V30.245a3.438,3.438,0,0,0,3.549,3.306H25.7a3.438,3.438,0,0,0,3.549-3.306V9.306A3.438,3.438,0,0,0,25.7,6Z" transform="translate(-38 3)" fill="#1d8799"/></g><g transform="translate(1080.638 -3610.31)"><path d="M12.179,30.68H24.2a1.371,1.371,0,1,0,0-2.742H12.179a1.371,1.371,0,1,0,0,2.742Zm0-5.484H24.2a1.371,1.371,0,1,0,0-2.742H12.179a1.371,1.371,0,1,0,0,2.742Zm0-5.484h6.873a1.371,1.371,0,1,0,0-2.742H12.179a1.371,1.371,0,1,0,0,2.742Z" transform="translate(-10.808 -16.969)" fill="#fff"/></g><line y2="4.953" transform="translate(1095.824 -3615.713)" fill="none" stroke="#f7f7f7" stroke-linecap="round" stroke-linejoin="round" stroke-width="2"/><line x1="4.953" y1="0.001" transform="translate(1093.347 -3613.237)" fill="none" stroke="#f7f7f7" stroke-linecap="round" stroke-linejoin="round" stroke-width="2"/></g></svg>