<svg xmlns="http://www.w3.org/2000/svg" width="36.5" height="34.226" viewBox="0 0 36.5 34.226">
  <g id="Patient" transform="translate(-1 -4.93)">
    <path id="Path_1326" data-name="Path 1326" d="M26.6,28.4a1.476,1.476,0,0,1-1.476-1.476v-1.99c0-5.307-5.7-9.419-10.6-9.419s-10.6,4.046-10.6,9.419v1.99a1.476,1.476,0,0,1-2.935,0v-1.99C1,17.79,8.131,12.5,14.532,12.5s13.549,5.29,13.549,12.371v2.056A1.476,1.476,0,0,1,26.6,28.4Z" transform="translate(0 8.313)" fill="#45b5af"/>
    <path id="Path_1327" data-name="Path 1327" d="M16.975,18.1a1.476,1.476,0,0,1-1.459-1.244A1.493,1.493,0,0,1,16.759,15.2a5.191,5.191,0,0,0-.813-10.315H14.736a1.476,1.476,0,1,1,0-2.952h1.211a8.142,8.142,0,0,1,1.26,16.185Z" transform="translate(8.071 3)" fill="#2e7c86"/>
    <g id="Ellipse_67" data-name="Ellipse 67" transform="translate(8 8.706)" fill="#fff" stroke="#e0e3f1" stroke-width="1">
      <ellipse cx="6.5" cy="6" rx="6.5" ry="6" stroke="none"/>
      <ellipse cx="6.5" cy="6" rx="6" ry="5.5" fill="none"/>
    </g>
    <path id="Path_1328" data-name="Path 1328" d="M27.069,25.819a1.476,1.476,0,0,1-1.476-1.476V22.27c0-4.975-4.975-8.955-9.618-9.419a1.476,1.476,0,1,1,.3-2.935c5.92.6,12.272,5.7,12.272,12.355v2.073A1.476,1.476,0,0,1,27.069,25.819Z" transform="translate(8.955 8.248)" fill="#2e7c86"/>
    <path id="Path_1325" data-name="Path 1325" d="M12.6,21.153A8.657,8.657,0,1,1,21.253,12.5,8.657,8.657,0,0,1,12.6,21.153Zm0-14.361a5.7,5.7,0,1,0,5.7,5.7,5.7,5.7,0,0,0-5.7-5.7Z" transform="translate(1.936 2.611)" fill="#45b5af"/>
    <path id="Path_1330" data-name="Path 1330" d="M10.581,0c5.844,0,10.581,4.218,10.581,9.42S0,14.623,0,9.42,4.737,0,10.581,0Z" transform="translate(3.947 23.784)" fill="#2e7c86"/>
    <path id="Path_1329" data-name="Path 1329" d="M10.581,0c5.844,0,10.581,4.367,10.581,9.755S0,15.142,0,9.755,4.737,0,10.581,0Z" transform="translate(3.947 25.361)" fill="#fff"/>
  </g>
</svg>
