<svg xmlns="http://www.w3.org/2000/svg" width="20" height="25.714" viewBox="0 0 20 25.714"><g transform="translate(-60 -4)"><g transform="translate(60 4)"><path d="M70,4A10.011,10.011,0,0,0,60,14c0,2.679,1.623,6.118,4.823,10.223a54.382,54.382,0,0,0,4.754,5.321.612.612,0,0,0,.846,0,54.376,54.376,0,0,0,4.754-5.321C78.377,20.118,80,16.679,80,14A10.011,10.011,0,0,0,70,4Zm0,17.143A7.143,7.143,0,1,1,77.143,14,7.151,7.151,0,0,1,70,21.143Z" transform="translate(-60 -4)" fill="#1bafab"/><path d="M166.979,103.777l-4.928-3.634a.792.792,0,0,0-.9,0l-4.928,3.634a.474.474,0,0,0-.125.683.74.74,0,0,0,.6.265h.652v3.453a.619.619,0,0,0,.672.545h1.568a.619.619,0,0,0,.672-.545v-2a.619.619,0,0,1,.672-.545h1.344a.619.619,0,0,1,.672.545v2a.619.619,0,0,0,.672.545h1.568a.619.619,0,0,0,.672-.545v-3.453h.652a.74.74,0,0,0,.6-.265A.474.474,0,0,0,166.979,103.777Z" transform="translate(-151.57 -95.198)" fill="#2e7c86"/></g></g></svg>