<svg xmlns="http://www.w3.org/2000/svg" width="17.385" height="17.385" viewBox="0 0 17.385 17.385"><g transform="translate(0 -0.004)"><g transform="translate(0 1.245)"><path d="M14.28,41.588a.621.621,0,0,0-.621.621v6.209a.621.621,0,0,1-.621.621H1.863a.621.621,0,0,1-.621-.621V36a.621.621,0,0,1,.621-.621H9.313a.621.621,0,1,0,0-1.242H1.863A1.863,1.863,0,0,0,0,36V48.417A1.863,1.863,0,0,0,1.863,50.28H13.038A1.863,1.863,0,0,0,14.9,48.417V42.208A.621.621,0,0,0,14.28,41.588Z" transform="translate(0 -34.137)" fill="#fff"/></g><g transform="translate(3.726 0.004)"><g transform="translate(0 0)"><path d="M115.372.7a2.377,2.377,0,0,0-3.362,0l-8.178,8.178a.628.628,0,0,0-.15.243l-1.242,3.725a.621.621,0,0,0,.589.817.631.631,0,0,0,.2-.032l3.725-1.242a.621.621,0,0,0,.243-.15l8.178-8.178A2.377,2.377,0,0,0,115.372.7Z" transform="translate(-102.409 -0.004)" fill="#fff"/></g></g></g></svg>