<svg xmlns="http://www.w3.org/2000/svg" width="19.557" height="19.441" viewBox="0 0 19.557 19.441"><g transform="translate(-16 -24)"><circle cx="1.222" cy="1.222" r="1.222" transform="translate(28.747 27.035)" fill="#d5d5d3"/><path d="M363.681,133.876h-.667v-.883l-1.261-1.576.521-.417,1.334,1.667a.333.333,0,0,1,.073.208Z" transform="translate(-331.436 -102.571)" fill="#d5d5d3"/><path d="M187.335,50l-.667.333v.333a.667.667,0,0,1-.667.667h-2V48h2.668v1l.222.333Z" transform="translate(-161.047 -23)" fill="#fdc8a2"/><path d="M217.556,64.667H216V64h1.334v.333Z" transform="translate(-191.717 -38.333)" fill="#fdb683"/><path d="M40,352h2.334v2H40Z" transform="translate(-23 -314.419)" fill="#c7483c"/><circle cx="2.445" cy="2.445" r="2.445" transform="translate(17.833 38.552)" fill="#34507b"/><ellipse cx="1.222" cy="0.917" rx="1.222" ry="0.917" transform="translate(19.035 39.774)" fill="#d5d5d3"/><path d="M24.667,136h4a.667.667,0,0,1,.667.667v4.668H24v-4.668A.667.667,0,0,1,24.667,136Z" transform="translate(-7.667 -107.37)" fill="#d65246"/><path d="M48,192h.667v2H48Z" transform="translate(-30.666 -161.044)" fill="#df6257"/><path d="M24,160h5.335v.667H24Z" transform="translate(-7.667 -130.366)" fill="#c7483c"/><path d="M35.883,254.71l2.068-2.082a1,1,0,0,0,.291-.707v-2.587A1.329,1.329,0,0,1,39.567,248v1.667a1.662,1.662,0,0,0,1.656,1.667v1.334h-.739a1.321,1.321,0,0,0-.98.437L36.98,255.9a1.321,1.321,0,0,1-.98.437H24a4.387,4.387,0,0,1,3.585-4.324l.059-.011v-1.334h5.631a1.151,1.151,0,0,1-.984,1.142,1.562,1.562,0,0,0-1.335,1.55v.078A1.56,1.56,0,0,0,32.51,255h2.671a.99.99,0,0,0,.7-.293Z" transform="translate(-7.667 -214.779)" fill="#d65246"/><path d="M98.4,368.694l-.256-.616a3.414,3.414,0,0,1,.7-.205l.119.656A2.746,2.746,0,0,0,98.4,368.694Z" transform="translate(-78.744 -329.629)" fill="#df6257"/><path d="M56.722,382.36l-.6-.291a3.4,3.4,0,0,1,1.141-1.324l.376.551A2.736,2.736,0,0,0,56.722,382.36Z" transform="translate(-38.45 -341.971)" fill="#df6257"/><path d="M21.669,264H16.333a.333.333,0,0,0-.333.333v.389a.667.667,0,0,0,.548.657l3.394.617A.32.32,0,0,0,20,266h1.667a.333.333,0,0,0,.333-.333v-1.334A.333.333,0,0,0,21.669,264Zm-.333,1.334h-1.3l-3.365-.612v-.055h4.668Z" transform="translate(0 -230.062)" fill="#d5d5d3"/><path d="M175.693,25.667h-1.667v.792a.875.875,0,0,1-1.334.746.859.859,0,0,1-.129-.1.871.871,0,0,1-.283-.562l-.071-.713A1.667,1.667,0,0,1,173.868,24h.158A1.667,1.667,0,0,1,175.693,25.667Z" transform="translate(-149.737)" fill="#d65246"/><path d="M184,240v.667a1,1,0,0,0,1,1h3.335L186.668,246h1.667l1.567-3.773A1.611,1.611,0,0,0,188.414,240Z" transform="translate(-161.057 -207.074)" fill="#7a432a"/><path d="M188,130.334,186,128h-2v4.668h2.668V131l.374.374a1,1,0,0,0,.707.293H191v-1.334Z" transform="translate(-161.062 -99.699)" fill="#d65246"/><path d="M368,194.334h2.668V192h-.588a1.206,1.206,0,0,0-1.079.667L368,193Z" transform="translate(-337.445 -161.045)" fill="#d65246"/><path d="M380.73,378.33a2.333,2.333,0,1,1-.024-.333A2.333,2.333,0,0,1,380.73,378.33Z" transform="translate(-345.172 -337.44)" fill="#34507b"/><path d="M380.649,378.007H378l-1.32,1.981a2.334,2.334,0,1,1,3.964-1.981Z" transform="translate(-345.115 -337.451)" fill="#2f486e"/><path d="M408.95,409a1,1,0,1,1-.057-.333A.984.984,0,0,1,408.95,409Z" transform="translate(-374.768 -368.106)" fill="#cececc"/><path d="M408.944,408.662H407.71l-.566.848a1,1,0,1,1,1.8-.848Z" transform="translate(-374.82 -368.105)" fill="#c6c6c4"/><path d="M396,399.026l1.021,1.021a.619.619,0,0,0,.875-.875l-1.021-1.021Z" transform="translate(-364.278 -358.672)" fill="#d5d5d3"/><path d="M360,364h1.334l1.334-2h2.668a2,2,0,0,0-2-2h-.667A2.668,2.668,0,0,0,360,362.668Z" transform="translate(-329.778 -322.111)" fill="#d65246"/><path d="M352,184v1.334l.667.333v.667H354v-1.667Z" transform="translate(-322.087 -153.376)" fill="#fdc8a2"/><circle cx="0.611" cy="0.611" r="0.611" transform="translate(29.968 31.895)" fill="#34507b"/><g transform="translate(19.885 36.889)"><path d="M112,336h2.334v.667H112Z" transform="translate(-112 -336)" fill="#c7483c"/><path d="M134.255,409H128v-.667h6.922a1,1,0,0,0,.707-.293l.04-.04-.707.707A1,1,0,0,1,134.255,409Z" transform="translate(-127.333 -404.999)" fill="#c7483c"/><path d="M355.979,352a3.005,3.005,0,0,0-2.959,2.5h.679a2.338,2.338,0,0,1,2.28-1.834h.667V352Z" transform="translate(-342.974 -351.333)" fill="#c7483c"/></g><rect width="4.278" height="1.833" rx="0.917" transform="translate(21.459 34.322)" fill="#34507b"/><path d="M211.913,176.128l-1.1-1.1-.472.472,1.57,1.57Z" transform="translate(-186.295 -144.776)" fill="#c7483c"/><path d="M248,384h2a.667.667,0,1,1,0,1.334h-2Z" transform="translate(-222.396 -345.09)" fill="#d5d5d3"/></g></svg>