<svg xmlns="http://www.w3.org/2000/svg" width="17.925" height="19.12" viewBox="0 0 17.925 19.12">
  <g id="download" transform="translate(-16)">
    <g id="Group_1858" data-name="Group 1858" transform="translate(19.226)">
      <g id="Group_1857" data-name="Group 1857">
        <path id="Path_1450" data-name="Path 1450" d="M139.405,10.458a.715.715,0,0,0-.652-.42h-2.868V.717A.717.717,0,0,0,135.168,0H132.3a.717.717,0,0,0-.717.717v9.321h-2.868a.717.717,0,0,0-.539,1.189l5.019,5.736a.715.715,0,0,0,1.078,0l5.019-5.736A.715.715,0,0,0,139.405,10.458Z" transform="translate(-127.998)" fill="#707070"/>
      </g>
    </g>
    <g id="Group_1860" data-name="Group 1860" transform="translate(16 11.95)">
      <g id="Group_1859" data-name="Group 1859">
        <path id="Path_1451" data-name="Path 1451" d="M31.535,352v4.3H18.39V352H16v5.736a1.331,1.331,0,0,0,1.195,1.434H32.73a1.33,1.33,0,0,0,1.195-1.434V352Z" transform="translate(-16 -352)" fill="#707070"/>
      </g>
    </g>
  </g>
</svg>
