<svg id="share" xmlns="http://www.w3.org/2000/svg" width="17.722" height="19.333" viewBox="0 0 17.722 19.333">
  <path id="Path_1452" data-name="Path 1452" d="M320.27,18.8a2.8,2.8,0,1,1-2.8-2.8A2.8,2.8,0,0,1,320.27,18.8Zm0,0" transform="translate(-303.195 -15.354)" fill="#707070"/>
  <path id="Path_1453" data-name="Path 1453" d="M302.116,6.9a3.448,3.448,0,1,1,3.448-3.448A3.451,3.451,0,0,1,302.116,6.9Zm0-5.6a2.155,2.155,0,1,0,2.155,2.155A2.157,2.157,0,0,0,302.116,1.293Zm0,0" transform="translate(-287.842)" fill="#707070"/>
  <path id="Path_1454" data-name="Path 1454" d="M320.27,360.133a2.8,2.8,0,1,1-2.8-2.8A2.8,2.8,0,0,1,320.27,360.133Zm0,0" transform="translate(-303.195 -344.248)" fill="#707070"/>
  <path id="Path_1455" data-name="Path 1455" d="M302.116,348.227a3.448,3.448,0,1,1,3.448-3.448A3.451,3.451,0,0,1,302.116,348.227Zm0-5.6a2.155,2.155,0,1,0,2.155,2.155A2.157,2.157,0,0,0,302.116,342.625Zm0,0" transform="translate(-287.842 -328.895)" fill="#707070"/>
  <path id="Path_1456" data-name="Path 1456" d="M21.6,189.469a2.8,2.8,0,1,1-2.8-2.8A2.8,2.8,0,0,1,21.6,189.469Zm0,0" transform="translate(-15.354 -179.803)" fill="#707070"/>
  <path id="Path_1457" data-name="Path 1457" d="M3.448,177.563A3.448,3.448,0,1,1,6.9,174.116,3.451,3.451,0,0,1,3.448,177.563Zm0-5.6A2.155,2.155,0,1,0,5.6,174.116,2.157,2.157,0,0,0,3.448,171.961Zm0,0" transform="translate(0 -164.449)" fill="#707070"/>
  <path id="Path_1458" data-name="Path 1458" d="M115.1,96.5a.739.739,0,0,1-.654-.435.935.935,0,0,1,.281-1.176l6.977-4.559a.7.7,0,0,1,1.026.322.935.935,0,0,1-.281,1.176l-6.977,4.559A.675.675,0,0,1,115.1,96.5Zm0,0" transform="translate(-109.729 -86.912)" fill="#707070"/>
  <path id="Path_1459" data-name="Path 1459" d="M122.1,272.5a.675.675,0,0,1-.371-.113l-6.977-4.559a.934.934,0,0,1-.281-1.176.7.7,0,0,1,1.026-.322l6.977,4.559a.934.934,0,0,1,.281,1.176A.741.741,0,0,1,122.1,272.5Zm0,0" transform="translate(-109.75 -256.474)" fill="#707070"/>
</svg>
