<svg xmlns="http://www.w3.org/2000/svg" width="9.125" height="8.302" viewBox="0 0 9.125 8.302">
  <g id="warning" transform="translate(0 -20.359)">
    <path id="Path_1337" data-name="Path 1337" d="M9.016,27.368,5.31,20.79a.863.863,0,0,0-1.494,0L.11,27.368a.868.868,0,0,0,.747,1.293H8.24A.877.877,0,0,0,9.016,27.368Z" transform="translate(0 0)" fill="#e24c4b"/>
    <path id="Path_1338" data-name="Path 1338" d="M46.119,63.025,49.825,69.6H42.413l3.706-6.579Z" transform="translate(-41.556 -41.804)" fill="#e24c4b"/>
    <g id="Group_1773" data-name="Group 1773" transform="translate(3.518 22.228)">
      <path id="Path_1339" data-name="Path 1339" d="M195.909,179.313l.362,2.4a.589.589,0,0,0,.589.5h0a.627.627,0,0,0,.589-.5l.362-2.4a.942.942,0,0,0-.951-1.087h0A.966.966,0,0,0,195.909,179.313Z" transform="translate(-195.905 -178.226)" fill="#fff"/>
      <circle id="Ellipse_139" data-name="Ellipse 139" cx="0.544" cy="0.544" r="0.544" transform="translate(0.411 4.484)" fill="#fff"/>
    </g>
  </g>
</svg>
