<svg xmlns="http://www.w3.org/2000/svg" width="35.938" height="31.446" viewBox="0 0 35.938 31.446"><g transform="translate(0 -1)"><path d="M21.974,7.738H18.979V3.995H9.995V7.738H7V3.995A3,3,0,0,1,9.995,1h8.984a3,3,0,0,1,2.995,2.995Z" transform="translate(3.482 0)" fill="#607d8b"/><path d="M31.82,30.456H4.118A4.121,4.121,0,0,1,0,26.338V9.118A4.121,4.121,0,0,1,4.118,5h27.7a4.121,4.121,0,0,1,4.118,4.118v17.22A4.121,4.121,0,0,1,31.82,30.456Z" transform="translate(0 1.99)" fill="#2e7c86"/><path d="M14.665,1H9.995A3,3,0,0,0,7,3.995V6.99H9.995V3.995h4.67Z" transform="translate(3.482 0)" fill="#546d79"/><path d="M18.147,5H4.118A4.121,4.121,0,0,0,0,9.118v17.22a4.121,4.121,0,0,0,4.118,4.118H18.147V27.461h-.553a2.623,2.623,0,0,1-2.62-2.62V21.471H11.6a2.623,2.623,0,0,1-2.62-2.62V18.1a2.623,2.623,0,0,1,2.62-2.62h3.369V12.113a2.623,2.623,0,0,1,2.62-2.62h.553Z" transform="translate(0 1.99)" fill="#45b5af"/><path d="M15.163,8H14.61a2.623,2.623,0,0,0-2.62,2.62V13.99H8.62A2.623,2.623,0,0,0,6,16.61v.749a2.623,2.623,0,0,0,2.62,2.62H11.99v3.369a2.623,2.623,0,0,0,2.62,2.62h.553Z" transform="translate(2.984 3.482)" fill="#e1e3ea"/><path d="M15.359,25.969H14.61a2.623,2.623,0,0,1-2.62-2.62V19.979H8.62A2.623,2.623,0,0,1,6,17.359V16.61a2.623,2.623,0,0,1,2.62-2.62H11.99V10.62A2.623,2.623,0,0,1,14.61,8h.749a2.623,2.623,0,0,1,2.62,2.62V13.99h3.369a2.623,2.623,0,0,1,2.62,2.62v.749a2.623,2.623,0,0,1-2.62,2.62H17.979v3.369A2.623,2.623,0,0,1,15.359,25.969Z" transform="translate(3.984 3.482)" fill="#fff"/></g></svg>