<svg xmlns="http://www.w3.org/2000/svg" width="35.287" height="36.258" viewBox="0 0 35.287 36.258"><g transform="translate(-1.45 -1.15)"><path d="M9.762,28.385H9.537A7.254,7.254,0,0,1,2.3,21.148V9.289A7.254,7.254,0,0,1,9.537,2H28.581a7.254,7.254,0,0,1,7.306,7.289V21.148a7.254,7.254,0,0,1-7.237,7.237H22.556" transform="translate(0 0)" fill="#fff" stroke="#45b5af" stroke-linecap="round" stroke-linejoin="round" stroke-width="1.7"/><path d="M6.61,17.24v5.54c0,3.082.675,3.289,2.978,1.61L19.4,17.24" transform="translate(3.152 11.145)" fill="#fff" stroke="#45b5af" stroke-linecap="round" stroke-linejoin="round" stroke-width="1.7"/><path d="M9.512,6.76H20.245a1.472,1.472,0,1,1,0,2.943H9.512a1.472,1.472,0,0,1,0-2.943Z" transform="translate(4.198 3.481)" fill="#2e7c86"/><path d="M8.512,10.83h14.2a1.472,1.472,0,0,1,0,2.943H8.512a1.472,1.472,0,0,1,0-2.943Z" transform="translate(3.466 6.457)" fill="#2e7c86"/><path d="M7.94,10.83h8.68c.5,0,.9.659.9,1.472s-.4,1.472-.9,1.472H7.94c-.5,0-.9-.659-.9-1.472s.4-1.472.9-1.472Z" transform="translate(3.466 6.457)" fill="#1bafab"/><path d="M9.03,6.76h7.224c.547,0,.99.659.99,1.472S16.8,9.7,16.255,9.7H9.03c-.547,0-.99-.659-.99-1.472S8.483,6.76,9.03,6.76Z" transform="translate(9.015 3.481)" fill="#1bafab"/></g></svg>