<svg xmlns="http://www.w3.org/2000/svg" width="29.863" height="38.27" viewBox="0 0 29.863 38.27"><g transform="translate(-9 6748.175)"><rect width="27" height="32" transform="translate(10 -6745)" fill="#fff"/><g transform="translate(-42 -88.175)"><path d="M5.532,8.2a2.687,2.687,0,0,1-.276.939,2.867,2.867,0,0,1-.544.738,3.1,3.1,0,0,1-.745.536,4.264,4.264,0,0,1-.864.335l3.562,4.694h-1.7l-2.638-3.5a4.133,4.133,0,0,0-.782-.842,1.216,1.216,0,0,0-.738-.261V9.754h.879a5.681,5.681,0,0,0,.887-.067,2.619,2.619,0,0,0,.767-.238,1.649,1.649,0,0,0,.574-.469A1.46,1.46,0,0,0,4.191,8.2H.54l.447-.879H4.132a1.718,1.718,0,0,0-.581-.984,1.952,1.952,0,0,0-1.207-.4H.54L.987,5.06H7.529l-.447.879H4.906a2.5,2.5,0,0,1,.611,1.386H7.529L7.082,8.2Z" transform="translate(55.387 -6656.144)" fill="#1bafab"/><g transform="translate(51 -6660)"><path d="M21.823,39.27a3.739,3.739,0,0,1-3.153-2.383,3.584,3.584,0,0,0-.624-.9,3.177,3.177,0,0,0-.658.9,3.706,3.706,0,0,1-3.153,2.383,3.706,3.706,0,0,1-3.153-2.383,3.476,3.476,0,0,0-.641-.9,3.177,3.177,0,0,0-.658.9A3.723,3.723,0,0,1,6.631,39.27H6.512A3.427,3.427,0,0,1,3.14,35.79V4.479A3.427,3.427,0,0,1,6.512,1h.1a3.723,3.723,0,0,1,3.17,2.4,3.751,3.751,0,0,0,.641.887,2.885,2.885,0,0,0,.641-.9A3.739,3.739,0,0,1,14.219,1a3.739,3.739,0,0,1,3.17,2.383,3.2,3.2,0,0,0,.624.9,2.885,2.885,0,0,0,.641-.9A3.739,3.739,0,0,1,21.823,1a3.723,3.723,0,0,1,3.153,2.383,3.476,3.476,0,0,0,.641.9,2.987,2.987,0,0,0,.641-.887A3.757,3.757,0,0,1,29.428,1h.2A3.427,3.427,0,0,1,33,4.479V35.79a3.427,3.427,0,0,1-3.372,3.479h-.219a3.773,3.773,0,0,1-3.153-2.383,3.2,3.2,0,0,0-.624-.9,2.885,2.885,0,0,0-.641.9,3.739,3.739,0,0,1-3.17,2.383ZM18.08,32.955a3.723,3.723,0,0,1,3.153,2.383,3.476,3.476,0,0,0,.641.9,2.885,2.885,0,0,0,.641-.9,3.773,3.773,0,0,1,3.153-2.383,3.739,3.739,0,0,1,3.17,2.383,3.2,3.2,0,0,0,.624.9H29.7a.446.446,0,0,0,.422-.452V4.479a.446.446,0,0,0-.438-.452h-.2a3.053,3.053,0,0,0-.658.887A3.7,3.7,0,0,1,25.668,7.28a3.718,3.718,0,0,1-3.2-2.348,3.476,3.476,0,0,0-.641-.9,2.885,2.885,0,0,0-.641.9,3.775,3.775,0,0,1-3.1,2.383,3.772,3.772,0,0,1-3.17-2.383,3.2,3.2,0,0,0-.624-.9,3.177,3.177,0,0,0-.658.9,3.72,3.72,0,0,1-3.2,2.383A3.755,3.755,0,0,1,7.271,4.949a3.48,3.48,0,0,0-.624-.9H6.529a.445.445,0,0,0-.438.435V35.79a.446.446,0,0,0,.438.452h.118a3.2,3.2,0,0,0,.624-.9,3.739,3.739,0,0,1,3.17-2.383,3.773,3.773,0,0,1,3.153,2.383,3.584,3.584,0,0,0,.624.9,3.177,3.177,0,0,0,.658-.9,3.754,3.754,0,0,1,3.2-2.383Z" transform="translate(-3.14 -1)" fill="#45b5af"/><path d="M20.427,17.711H11.495a1.355,1.355,0,0,1-1.318-.68,1.546,1.546,0,0,1,0-1.557,1.355,1.355,0,0,1,1.318-.68h8.932a1.355,1.355,0,0,1,1.318.68,1.546,1.546,0,0,1,0,1.557,1.355,1.355,0,0,1-1.318.68Z" transform="translate(2.932 9.257)" fill="#45b5af"/><path d="M19.787,14.581H13.481a1.467,1.467,0,1,1,0-2.917h6.307a1.467,1.467,0,1,1,0,2.917Z" transform="translate(2.842 6.928)" fill="#45b5af"/><path d="M18.724,14.58H13.263a1.222,1.222,0,0,1-1.213-.68,1.662,1.662,0,0,1,0-1.557,1.222,1.222,0,0,1,1.213-.68h5.461a1.222,1.222,0,0,1,1.213.68,1.662,1.662,0,0,1,0,1.557,1.222,1.222,0,0,1-1.213.68Z" transform="translate(2.842 6.928)" fill="#2e7c86"/><path d="M19.3,17.711H11.33a1.178,1.178,0,0,1-1.176-.68,1.708,1.708,0,0,1,0-1.557,1.178,1.178,0,0,1,1.176-.68H19.3a1.178,1.178,0,0,1,1.176.68,1.708,1.708,0,0,1,0,1.557,1.178,1.178,0,0,1-1.176.68Z" transform="translate(4.319 9.257)" fill="#2e7c86"/></g><path d="M5.132,7.952a2.471,2.471,0,0,1-.254.863,2.637,2.637,0,0,1-.5.678,2.848,2.848,0,0,1-.685.493A3.922,3.922,0,0,1,2.9,10.3l3.276,4.317H4.611L2.185,11.392a3.8,3.8,0,0,0-.72-.774,1.119,1.119,0,0,0-.678-.24v-1H1.6a5.225,5.225,0,0,0,.816-.062A2.409,2.409,0,0,0,3.117,9.1a1.516,1.516,0,0,0,.528-.432A1.343,1.343,0,0,0,3.9,7.952H.54l.411-.809H3.843a1.58,1.58,0,0,0-.535-.9,1.8,1.8,0,0,0-1.11-.37H.54L.951,5.06H6.969l-.411.809h-2a2.3,2.3,0,0,1,.562,1.275h1.85l-.411.809Z" transform="translate(55.387 -6656.155)" fill="#2e7c86"/></g></g></svg>