<svg xmlns="http://www.w3.org/2000/svg" width="30.565" height="30.162" viewBox="0 0 30.565 30.162">
  <g id="Group_1829" data-name="Group 1829" transform="translate(-63 -120.213)" style="isolation: isolate">
    <g id="Group_1694" data-name="Group 1694" transform="translate(63 122.16)">
      <rect id="Rectangle_442" data-name="Rectangle 442" width="29" height="27" transform="translate(1 1.053)" fill="#fff"/>
      <rect id="Rectangle_441" data-name="Rectangle 441" width="26.548" height="0.86" transform="translate(1.837 7.976)" fill="#45b5af"/>
      <path id="Path_1280" data-name="Path 1280" d="M12.236,20.181a1.165,1.165,0,0,1-.83-.348L8.728,17.288A1.2,1.2,0,1,1,10.442,15.6l1.781,1.728,3.683-3.75a1.192,1.192,0,0,1,1.687,0,1.205,1.205,0,0,1,0,1.687l-4.526,4.553A1.152,1.152,0,0,1,12.236,20.181Z" transform="translate(1.747 0.232)" fill="#2e7c86"/>
      <path id="Path_1281" data-name="Path 1281" d="M12.481,20.623a1.239,1.239,0,0,1-.883-.37L8.749,17.546a1.279,1.279,0,1,1,1.823-1.795l1.894,1.837L16.384,13.6a1.268,1.268,0,0,1,1.795,0,1.282,1.282,0,0,1,0,1.795l-4.814,4.843A1.225,1.225,0,0,1,12.481,20.623Z" transform="translate(1.747 1.069)" fill="#1bafab"/>
      <path id="Path_1277" data-name="Path 1277" d="M28.986,31.4H4.119A2.849,2.849,0,0,1,1.27,28.556V6.039A2.849,2.849,0,0,1,4.119,3.19H28.986a2.849,2.849,0,0,1,2.849,2.849V28.556A2.849,2.849,0,0,1,28.986,31.4ZM4.119,5.768a.256.256,0,0,0-.256.242V28.556a.271.271,0,0,0,.256.256H28.986a.271.271,0,0,0,.256-.256V6.039a.256.256,0,0,0-.256-.271Z" transform="translate(-1.27 -3.19)" fill="#45b5af"/>
    </g>
    <path id="Path_1282" data-name="Path 1282" d="M105.53,1.972a1.972,1.972,0,0,0-3.943,0V5.915a1.972,1.972,0,0,0,3.943,0,.657.657,0,1,0-1.314,0,.657.657,0,1,1-1.314,0V1.972a.657.657,0,1,1,1.314,0h1.314Z" transform="translate(-30.112 120.213)" fill="#2e7c86"/>
    <path id="Path_1283" data-name="Path 1283" d="M105.53,1.972a1.972,1.972,0,0,0-3.943,0V5.915a1.972,1.972,0,0,0,3.943,0,.657.657,0,1,0-1.314,0,.657.657,0,1,1-1.314,0V1.972a.657.657,0,1,1,1.314,0h1.314Z" transform="translate(-21.738 120.213)" fill="#2e7c86"/>
  </g>
</svg>
