<svg xmlns="http://www.w3.org/2000/svg" width="19.669" height="24.503" viewBox="0 0 19.669 24.503">
  <g id="doctor" transform="translate(-3.32 -0.523)">
    <path id="Path_755" data-name="Path 755" d="M5.128,21.537" transform="translate(-0.286 -3.32)" fill="none" stroke="#2e7c86" stroke-linejoin="round" stroke-width="3"/>
    <path id="Path_756" data-name="Path 756" d="M6.17,20.917" transform="translate(-0.45 -3.222)" fill="none" stroke="#2e7c86" stroke-linejoin="round" stroke-width="3"/>
    <path id="Path_757" data-name="Path 757" d="M3.324,27.485c0-.769,0-2.133,0-2.934,0-4.8,4.3-8.459,9.79-8.459s9.879,3.663,9.879,8.459v2.918" transform="translate(0 -2.46)" fill="#1bafab"/>
    <path id="Path_758" data-name="Path 758" d="M17.033,16.358l-2.559,4.915-2.523-4.925A11.584,11.584,0,0,1,17.033,16.358Z" transform="translate(-1.364 -2.457)" fill="#2e7c86"/>
    <g id="Group_877" data-name="Group 877" transform="translate(17.992 15.23)">
      <path id="Path_759" data-name="Path 759" d="M21.093,19.773a.364.364,0,0,1-.158-.037.35.35,0,0,1-.151-.472l.557-1.085a.348.348,0,1,1,.617.32L21.4,19.584A.346.346,0,0,1,21.093,19.773Z" transform="translate(-20.744 -17.99)" fill="#f7f7f7"/>
    </g>
    <path id="Path_760" data-name="Path 760" d="M18.463,21.109a1.614,1.614,0,1,1,1.614,1.623A1.618,1.618,0,0,1,18.463,21.109Z" transform="translate(-2.392 -2.996)" fill="#f7f7f7"/>
    <g id="Group_878" data-name="Group 878" transform="translate(6.97 15.229)">
      <path id="Path_761" data-name="Path 761" d="M8.659,20.192a.348.348,0,0,1-.319-.21l-.656-1.5a.349.349,0,1,1,.637-.282l.656,1.5a.35.35,0,0,1-.178.461A.373.373,0,0,1,8.659,20.192Z" transform="translate(-7.655 -17.989)" fill="#f7f7f7"/>
    </g>
    <g id="Group_879" data-name="Group 879" transform="translate(5.961 16.474)">
      <path id="Path_762" data-name="Path 762" d="M9.251,25.634a2.163,2.163,0,0,1-2.043-1.282l-.6-1.441A2.317,2.317,0,0,1,8,19.966l.7-.292a2.3,2.3,0,0,1,3.064,1.07l.6,1.442a2.215,2.215,0,0,1-.761,2.574l-.434-.548a1.52,1.52,0,0,0,.552-1.755l-.6-1.442a1.6,1.6,0,0,0-2.15-.7l-.7.292A1.622,1.622,0,0,0,7.25,22.641l.6,1.441a1.475,1.475,0,0,0,1.446.851l.017.7Z" transform="translate(-6.456 -19.467)" fill="#f7f7f7"/>
    </g>
    <g id="Group_880" data-name="Group 880" transform="translate(8.548 21.669)">
      <rect id="Rectangle_256" data-name="Rectangle 256" width="0.697" height="1.365" transform="translate(0 0.044) rotate(-3.647)" fill="#f7f7f7"/>
    </g>
    <g id="Group_881" data-name="Group 881" transform="translate(10.209 20.862)">
      <path id="Path_763" data-name="Path 763" d="M12.265,26.221,11.5,25.065l.581-.387.763,1.155Z" transform="translate(-11.502 -24.678)" fill="#f7f7f7"/>
    </g>
    <path id="Path_764" data-name="Path 764" d="M8.607,12.738a1.293,1.293,0,0,1-.248.07,1.395,1.395,0,1,1-.184-2.765" transform="translate(-0.537 -1.504)" fill="#2e7c86"/>
    <path id="Path_765" data-name="Path 765" d="M20.91,12.738a1.319,1.319,0,0,0,.248.07,1.395,1.395,0,1,0,.184-2.765" transform="translate(-2.779 -1.504)" fill="#2e7c86"/>
    <path id="Path_766" data-name="Path 766" d="M19.04,8.335a5.674,5.674,0,0,1,.429,1.93,5.553,5.553,0,1,1-11.106,0A5.5,5.5,0,0,1,8.7,8.356" transform="translate(-0.797 -1.234)" fill="#2e7c86"/>
    <path id="Path_767" data-name="Path 767" d="M8.538,7.708V4.8c0-2.883,2.475-4.272,5.343-4.272h0c2.871,0,5.4,1.389,5.4,4.272V7.71" transform="translate(-0.824 0)" fill="#1bafab"/>
    <g id="Group_882" data-name="Group 882" transform="translate(12.705 2.894)">
      <path id="Path_768" data-name="Path 768" d="M14.814,6.932a.349.349,0,0,1-.348-.349V3.69a.348.348,0,1,1,.7,0V6.582A.349.349,0,0,1,14.814,6.932Z" transform="translate(-14.466 -3.339)" fill="#fff"/>
    </g>
    <g id="Group_883" data-name="Group 883" transform="translate(11.267 4.341)">
      <path id="Path_769" data-name="Path 769" d="M15.984,5.758H13.106a.351.351,0,0,1,0-.7h2.878a.351.351,0,0,1,0,.7Z" transform="translate(-12.758 -5.057)" fill="#fff"/>
    </g>
    <rect id="Rectangle_257" data-name="Rectangle 257" width="6.186" height="0.695" transform="translate(16.803 22.436)" fill="#2e7c86"/>
    <rect id="Rectangle_258" data-name="Rectangle 258" width="19.668" height="0.696" transform="translate(3.321 24.33)" fill="#2e7c86"/>
    <g id="Group_884" data-name="Group 884" transform="translate(16.579 8.046)">
      <path id="Path_770" data-name="Path 770" d="M19.414,12.9a.343.343,0,0,1-.192-.059.353.353,0,0,1-.1-.486,2.683,2.683,0,0,0,.443-1.49,2.732,2.732,0,0,0-.166-.941.353.353,0,0,1,.209-.45.348.348,0,0,1,.445.209,3.443,3.443,0,0,1,.207,1.183,3.372,3.372,0,0,1-.557,1.878A.349.349,0,0,1,19.414,12.9Z" transform="translate(-19.066 -9.457)" fill="#fff"/>
    </g>
  </g>
</svg>
