<svg xmlns="http://www.w3.org/2000/svg" width="20.999" height="11.759" viewBox="0 0 20.999 11.759">
  <g id="Group_837" data-name="Group 837" transform="translate(-2 -7.5)">
    <path id="Path_736" data-name="Path 736" d="M14.6,19.259H3.68A1.68,1.68,0,0,1,2,17.579V9.18A1.68,1.68,0,0,1,3.68,7.5H14.6a1.68,1.68,0,0,1,1.68,1.68v8.4A1.68,1.68,0,0,1,14.6,19.259Z" transform="translate(0 0)" fill="#2e7c86"/>
    <path id="Path_737" data-name="Path 737" d="M21,11v5.04l3.734,2.49a.84.84,0,0,0,1.306-.7V9.209a.84.84,0,0,0-1.306-.7Z" transform="translate(-3.041 -0.139)" fill="#1bafab"/>
  </g>
</svg>
