<svg xmlns="http://www.w3.org/2000/svg" width="20.941" height="20.479" viewBox="0 0 20.941 20.479">
  <path id="Icon_material-notifications-active" data-name="Icon material-notifications-active" d="M8.873,5.409l-1.5-1.5a10.948,10.948,0,0,0-4.327,8.244h2.1A8.869,8.869,0,0,1,8.873,5.409Zm13.012,6.742h2.1a11.015,11.015,0,0,0-4.327-8.244l-1.491,1.5A8.922,8.922,0,0,1,21.885,12.151Zm-2.069.525c0-3.224-1.722-5.923-4.726-6.637V5.325a1.575,1.575,0,0,0-3.151,0v.714c-3.014.714-4.726,3.4-4.726,6.637v5.251l-2.1,2.1v1.05h16.8v-1.05l-2.1-2.1Zm-6.3,11.552a1.84,1.84,0,0,0,.42-.042,2.131,2.131,0,0,0,1.512-1.239,2.108,2.108,0,0,0,.158-.819H11.4A2.116,2.116,0,0,0,13.515,24.229Z" transform="translate(-3.045 -3.75)" fill="#459fed"/>
</svg>
