<svg xmlns="http://www.w3.org/2000/svg" width="20.21" height="23.172" viewBox="0 0 20.21 23.172">
  <g id="jpg" transform="translate(-5.876 0.45)">
    <path id="Path_1357" data-name="Path 1357" d="M20.828,0H7.188A.7.7,0,0,0,6.5.8V22.734c0,.143.308.413.688.413H26.023c.38,0,.688-.271.688-.413V5.364c0-.288-.044-.38-.121-.448L21.121.106A.446.446,0,0,0,20.828,0Z" transform="translate(-0.624 -0.426)" fill="#e9e9e0"/>
    <path id="Path_1358" data-name="Path 1358" d="M37.739-.36,37.5,4.959l5.951-.313Z" transform="translate(-17.422 -0.09)" fill="#d9d7ca"/>
    <circle id="Ellipse_145" data-name="Ellipse 145" cx="1.854" cy="1.854" r="1.854" transform="translate(9.69 4.001)" fill="#f3d55b"/>
    <path id="Path_1359" data-name="Path 1359" d="M6.5,26.818H23.947V22.355L19.889,18.5l-4.26,4.666L13.4,20.941Z" transform="translate(0 -10.994)" fill="#26b99a"/>
    <path id="Path_1360" data-name="Path 1360" d="M23.353,45.9H7.094A.594.594,0,0,1,6.5,45.3V39H23.947v6.3A.594.594,0,0,1,23.353,45.9Z" transform="translate(0 -23.176)" fill="#14a085"/>
    <g id="Group_1818" data-name="Group 1818" transform="translate(10.054 17.305)">
      <path id="Path_1361" data-name="Path 1361" d="M17.762,42.65v3.184a1.018,1.018,0,0,1-.105.485.869.869,0,0,1-.283.316,1.127,1.127,0,0,1-.408.166,2.345,2.345,0,0,1-.474.047,1.924,1.924,0,0,1-.286-.025,2.427,2.427,0,0,1-.338-.077q-.175-.053-.336-.119a1.226,1.226,0,0,1-.272-.15l.283-.449a.828.828,0,0,0,.158.08q.1.041.225.077c.081.024.166.045.255.064a1.215,1.215,0,0,0,.25.028.852.852,0,0,0,.469-.114.449.449,0,0,0,.186-.385V42.65Z" transform="translate(-15.26 -42.65)" fill="#fff"/>
      <path id="Path_1362" data-name="Path 1362" d="M24.539,46.944h-.666V42.855h1.176a1.65,1.65,0,0,1,.516.083,1.4,1.4,0,0,1,.458.25,1.3,1.3,0,0,1,.327.4,1.114,1.114,0,0,1,.125.53,1.449,1.449,0,0,1-.105.563,1.177,1.177,0,0,1-.294.424,1.325,1.325,0,0,1-.455.266,1.75,1.75,0,0,1-.588.094h-.494v1.476Zm0-3.583v1.62h.61a.725.725,0,0,0,.241-.042.608.608,0,0,0,.219-.136.664.664,0,0,0,.161-.263,1.247,1.247,0,0,0,.061-.419,1.133,1.133,0,0,0-.028-.23.664.664,0,0,0-.114-.25.672.672,0,0,0-.241-.2.892.892,0,0,0-.411-.081Z" transform="translate(-20.378 -42.772)" fill="#fff"/>
      <path id="Path_1363" data-name="Path 1363" d="M35.032,44.739v1.581a1.194,1.194,0,0,1-.286.263,1.747,1.747,0,0,1-.333.169,1.716,1.716,0,0,1-.361.094,2.371,2.371,0,0,1-.369.028,1.678,1.678,0,0,1-.674-.133,1.509,1.509,0,0,1-.538-.394,1.859,1.859,0,0,1-.361-.654,3.232,3.232,0,0,1,0-1.816,1.849,1.849,0,0,1,.361-.652,1.534,1.534,0,0,1,.541-.4,1.651,1.651,0,0,1,.671-.136,1.718,1.718,0,0,1,.621.111,1.515,1.515,0,0,1,.516.333l-.461.411a.792.792,0,0,0-.305-.233.914.914,0,0,0-.355-.072,1,1,0,0,0-.391.077.838.838,0,0,0-.333.263,1.357,1.357,0,0,0-.23.48,2.831,2.831,0,0,0-.089.721,3.008,3.008,0,0,0,.086.721,1.48,1.48,0,0,0,.222.5.945.945,0,0,0,.322.288.808.808,0,0,0,.38.094c.041,0,.095,0,.164-.009a1.991,1.991,0,0,0,.205-.028,1.335,1.335,0,0,0,.2-.053.282.282,0,0,0,.139-.094V45.193h-.693v-.455h1.354Z" transform="translate(-25.197 -42.675)" fill="#fff"/>
    </g>
  </g>
</svg>
