<svg xmlns="http://www.w3.org/2000/svg" width="32" height="30" viewBox="0 0 32 30">
  <g id="Group_1840" data-name="Group 1840" transform="translate(-17 -312)">
    <rect id="Rectangle_720" data-name="Rectangle 720" width="32" height="30" rx="9" transform="translate(17 312)" fill="#fff"/>
    <g id="blood-test" transform="translate(6.5 316.786)">
      <path id="Path_1389" data-name="Path 1389" d="M377.079,71.139a4.584,4.584,0,0,1-4.579,4.579V62.06l3.568,5.606A6.461,6.461,0,0,1,377.079,71.139Z" transform="translate(-341.455 -59.692)" fill="#2e7c86"/>
      <path id="Path_1390" data-name="Path 1390" d="M257.079,62.06V75.718a4.584,4.584,0,0,1-4.579-4.579,6.461,6.461,0,0,1,1.011-3.473Z" transform="translate(-226.033 -59.692)" fill="#1bafab"/>
      <path id="Path_1391" data-name="Path 1391" d="M110.934,75v3.434l-2.85.747-.011,0L107.5,75Z" transform="translate(-86.566 -72.138)" fill="#2e7c86"/>
      <path id="Path_1392" data-name="Path 1392" d="M50.362,75v4.178L47.5,78.434V75Z" transform="translate(-28.855 -72.138)" fill="#1bafab"/>
      <path id="Path_1393" data-name="Path 1393" d="M110.934,330.572v3.434a2.865,2.865,0,0,1-2.862,2.862l-.572-6.847.684-.021Z" transform="translate(-86.566 -317.409)" fill="#2e7c86"/>
      <path id="Path_1394" data-name="Path 1394" d="M50.362,330.56v6.847a2.865,2.865,0,0,1-2.862-2.862v-3.434Z" transform="translate(-28.855 -317.947)" fill="#1bafab"/>
      <path id="Path_1395" data-name="Path 1395" d="M50.373,171.868H47.5V165h2.873l.561,3.472Z" transform="translate(-28.855 -158.704)" fill="#f7f9fa"/>
      <path id="Path_1396" data-name="Path 1396" d="M122.8,165h2.873v6.868H122.8Z" transform="translate(-101.285 -158.704)" fill="#dceaec"/>
      <path id="Path_1397" data-name="Path 1397" d="M50.373,211.145H47.5V210h2.873l.162.572Z" transform="translate(-28.855 -201.987)" fill="#00eecf"/>
      <path id="Path_1398" data-name="Path 1398" d="M47.5,270h2.289v1.145H47.5Z" transform="translate(-28.855 -259.698)" fill="#00eecf"/>
      <path id="Path_1399" data-name="Path 1399" d="M374.217,251.145v1.145h-1.145v1.145H372.5V250h.572v1.145Z" transform="translate(-341.455 -240.461)" fill="#dceaec"/>
      <path id="Path_1400" data-name="Path 1400" d="M329.217,250v3.434h-.572v-1.145H327.5v-1.145h1.145V250Z" transform="translate(-298.172 -240.461)" fill="#f7f9fa"/>
      <path id="Path_1401" data-name="Path 1401" d="M17.5,0h2.671V3.434H17.5Z" fill="#0a789b"/>
      <path id="Path_1402" data-name="Path 1402" d="M87.5,0h1.347V3.434H87.5Z" transform="translate(-67.329)" fill="#0a617d"/>
      <path id="Path_1403" data-name="Path 1403" d="M122.5,0h1.347V3.434H122.5Z" transform="translate(-100.994)" fill="#08475e"/>
      <path id="Path_1404" data-name="Path 1404" d="M157.5,0h2.671V3.434H157.5Z" transform="translate(-134.658)" fill="#05303d"/>
      <path id="Path_1405" data-name="Path 1405" d="M122.8,210h.561v1.145H122.8Z" transform="translate(-101.285 -201.987)" fill="#00b5bc"/>
    </g>
  </g>
</svg>
