<svg xmlns="http://www.w3.org/2000/svg" width="30.5" height="31.872" viewBox="0 0 30.5 31.872">
  <g id="Icons_microscope" data-name="Icons/ microscope" transform="translate(0.75 0.812)">
    <g id="Icons_microscope-2" data-name="Icons/ microscope" transform="translate(0 0.037)">
      <ellipse id="Oval" cx="3.904" cy="3.841" rx="3.904" ry="3.841" transform="translate(15.615 6.915)" fill="none" stroke="#fff" stroke-linecap="round" stroke-linejoin="round" stroke-miterlimit="10" stroke-width="1.5"/>
      <path id="Path" d="M9.592,11.2,6.915,13.939a2.181,2.181,0,0,1-3.123,0L.669,10.866a2.1,2.1,0,0,1,0-3.073L8.588,0,14.5,5.817" transform="translate(6.469 1.427)" fill="none" stroke="#fff" stroke-linecap="round" stroke-linejoin="round" stroke-miterlimit="10" stroke-width="1.5"/>
      <path id="Path-2" data-name="Path" d="M23.2,0A10.97,10.97,0,0,1,29,9.659,11.1,11.1,0,0,1,17.846,20.634H0v-2.2a2.22,2.22,0,0,1,2.231-2.2H13.385l4.462,4.39" transform="translate(0 9.329)" fill="none" stroke="#fff" stroke-linecap="round" stroke-linejoin="round" stroke-miterlimit="10" stroke-width="1.5"/>
      <path id="Path-3" data-name="Path" d="M8.7,0a6.569,6.569,0,0,1,2.677,5.378,6.712,6.712,0,0,1-6.915,6.585H0" transform="translate(13.385 13.61)" fill="none" stroke="#fff" stroke-linecap="round" stroke-linejoin="round" stroke-miterlimit="10" stroke-width="1.5"/>
      <path id="Path-4" data-name="Path" d="M5.912,3.183l-2.454,2.3a1.09,1.09,0,0,1-1.562,0L.335,3.951a1.049,1.049,0,0,1,0-1.537L2.788,0" transform="translate(4.35 12.183)" fill="none" stroke="#fff" stroke-linecap="round" stroke-linejoin="round" stroke-miterlimit="10" stroke-width="1.5"/>
      <path id="Path-5" data-name="Path" d="M0,2.2,1.9.329a1.09,1.09,0,0,1,1.562,0L5.8,2.634a1.049,1.049,0,0,1,0,1.537L3.9,6.037" transform="translate(15.838)" fill="none" stroke="#fff" stroke-linecap="round" stroke-linejoin="round" stroke-miterlimit="10" stroke-width="1.5"/>
    </g>
  </g>
</svg>
