<svg xmlns="http://www.w3.org/2000/svg" width="32" height="30" viewBox="0 0 32 30">
  <g id="Group_1839" data-name="Group 1839" transform="translate(-17 -312)">
    <rect id="Rectangle_720" data-name="Rectangle 720" width="32" height="30" rx="9" transform="translate(17 312)" fill="#fff"/>
    <g id="medicine" transform="translate(27.807 309.254)">
      <path id="Path_1422" data-name="Path 1422" d="M44.609,6.126a4.713,4.713,0,0,0-6.664,6.665l4.292,4.292L48.9,10.419Z" transform="translate(-36.26)" fill="#e1ebf0"/>
      <path id="Path_1423" data-name="Path 1423" d="M50.389,16.2a.352.352,0,0,1-.248-.6,2.7,2.7,0,0,1,3.808,0,.351.351,0,1,1-.5.5,1.993,1.993,0,0,0-2.814,0,.35.35,0,0,1-.248.1Z" transform="translate(-47.028 -8.042)" fill="#b4d2d7"/>
      <path id="Path_1424" data-name="Path 1424" d="M75.77,37.288l-4.293-4.293-6.664,6.664,4.293,4.293a4.713,4.713,0,1,0,6.665-6.664Z" transform="translate(-58.836 -22.576)" fill="#1bafab"/>
      <path id="Path_1426" data-name="Path 1426" d="M5.592,0A5.592,5.592,0,1,1,0,5.592,5.592,5.592,0,0,1,5.592,0Z" transform="translate(-8.807 24.698) rotate(-57.788)" fill="#2e7c86"/>
      <path id="Path_1425" data-name="Path 1425" d="M16.383,87.295a.352.352,0,0,1-.248-.6l4.744-4.744a.351.351,0,0,1,.5.5l-4.744,4.744A.35.35,0,0,1,16.383,87.295Z" transform="translate(-19.851 -61.618)" fill="#b4d2d7"/>
    </g>
  </g>
</svg>
