<svg xmlns="http://www.w3.org/2000/svg" width="22.855" height="27.531" viewBox="0 0 22.855 27.531">
  <g id="receipt" transform="translate(-43.481)">
    <g id="Group_1788" data-name="Group 1788" transform="translate(43.481)">
      <g id="Group_1787" data-name="Group 1787">
        <path id="Path_1348" data-name="Path 1348" d="M62.71,2.089,59.892.465,57.074,2.089,54.255.465,51.437,2.089,47.812,0V21.649H43.481v2.91a2.976,2.976,0,0,0,2.973,2.973h16.91a2.976,2.976,0,0,0,2.973-2.973V0ZM46.454,25.916A1.36,1.36,0,0,1,45.1,24.558v-1.3h15.3v1.3a2.956,2.956,0,0,0,.329,1.358Zm16.91,0A1.36,1.36,0,0,1,62,24.558v-2.91H49.426V2.793l2.011,1.159,2.818-1.624,2.818,1.624,2.818-1.624L62.71,3.952l2.011-1.159V24.558h0A1.36,1.36,0,0,1,63.363,25.916Z" transform="translate(-43.481)" fill="#fff"/>
      </g>
    </g>
    <g id="Group_1790" data-name="Group 1790" transform="translate(51.04 7.285)">
      <g id="Group_1789" data-name="Group 1789">
        <rect id="Rectangle_710" data-name="Rectangle 710" width="12.066" height="1.614" fill="#fff"/>
      </g>
    </g>
    <g id="Group_1792" data-name="Group 1792" transform="translate(51.04 10.364)">
      <g id="Group_1791" data-name="Group 1791">
        <rect id="Rectangle_711" data-name="Rectangle 711" width="12.066" height="1.614" fill="#fff"/>
      </g>
    </g>
    <g id="Group_1794" data-name="Group 1794" transform="translate(51.04 13.442)">
      <g id="Group_1793" data-name="Group 1793">
        <rect id="Rectangle_712" data-name="Rectangle 712" width="6.033" height="1.614" fill="#fff"/>
      </g>
    </g>
  </g>
</svg>
