<svg xmlns="http://www.w3.org/2000/svg" width="25.453" height="14.253" viewBox="0 0 25.453 14.253">
  <g id="Group_837" data-name="Group 837" transform="translate(-2 -7.5)">
    <path id="Path_736" data-name="Path 736" d="M17.272,21.753H4.036A2.036,2.036,0,0,1,2,19.717V9.536A2.036,2.036,0,0,1,4.036,7.5H17.272a2.036,2.036,0,0,1,2.036,2.036V19.717A2.036,2.036,0,0,1,17.272,21.753Z" transform="translate(0 0)" fill="#fff"/>
    <path id="Path_737" data-name="Path 737" d="M21,11.557v6.109l4.525,3.018a1.018,1.018,0,0,0,1.583-.848V9.387a1.018,1.018,0,0,0-1.583-.847Z" transform="translate(0.344 0.016)" fill="#fff"/>
  </g>
</svg>
