<svg xmlns="http://www.w3.org/2000/svg" width="29.388" height="29" viewBox="0 0 29.388 29"><g transform="translate(-63 -120.213)" style="isolation:isolate"><g transform="translate(63 122.16)"><rect width="28" height="26" transform="translate(1 1.053)" fill="#fff"/><rect width="25.371" height="0.86" transform="translate(1.837 7.637)" fill="#45b5af"/><path d="M12.236,20.181a1.165,1.165,0,0,1-.83-.348L8.728,17.288A1.2,1.2,0,1,1,10.442,15.6l1.781,1.728,3.683-3.75a1.192,1.192,0,0,1,1.687,0,1.205,1.205,0,0,1,0,1.687l-4.526,4.553A1.152,1.152,0,0,1,12.236,20.181Z" transform="translate(1.18 -0.504)" fill="#2e7c86"/><path d="M12.481,20.623a1.239,1.239,0,0,1-.883-.37L8.749,17.546a1.279,1.279,0,1,1,1.823-1.795l1.894,1.837L16.384,13.6a1.268,1.268,0,0,1,1.795,0,1.282,1.282,0,0,1,0,1.795l-4.814,4.843A1.225,1.225,0,0,1,12.481,20.623Z" transform="translate(1.163 0.271)" fill="#1bafab"/><path d="M27.919,30.243H4.009A2.735,2.735,0,0,1,1.27,27.512V5.921A2.735,2.735,0,0,1,4.009,3.19h23.91a2.735,2.735,0,0,1,2.739,2.731V27.512A2.735,2.735,0,0,1,27.919,30.243ZM4.009,5.662a.246.246,0,0,0-.246.232V27.512a.26.26,0,0,0,.246.246h23.91a.26.26,0,0,0,.246-.246V5.921a.246.246,0,0,0-.246-.259Z" transform="translate(-1.27 -3.19)" fill="#45b5af"/></g><path d="M105.53,1.972a1.972,1.972,0,0,0-3.943,0V5.915a1.972,1.972,0,0,0,3.943,0,.657.657,0,1,0-1.314,0,.657.657,0,1,1-1.314,0V1.972a.657.657,0,1,1,1.314,0h1.314Z" transform="translate(-30.487 120.213)" fill="#2e7c86"/><path d="M105.53,1.972a1.972,1.972,0,0,0-3.943,0V5.915a1.972,1.972,0,0,0,3.943,0,.657.657,0,1,0-1.314,0,.657.657,0,1,1-1.314,0V1.972a.657.657,0,1,1,1.314,0h1.314Z" transform="translate(-22.483 120.213)" fill="#2e7c86"/></g></svg>