<svg xmlns="http://www.w3.org/2000/svg" width="17.425" height="17.425" viewBox="0 0 17.425 17.425">
  <path id="Icon_awesome-info-circle" data-name="Icon awesome-info-circle" d="M9.275.563a8.713,8.713,0,1,0,8.713,8.713A8.714,8.714,0,0,0,9.275.563Zm0,3.865A1.476,1.476,0,1,1,7.8,5.9,1.476,1.476,0,0,1,9.275,4.427Zm1.967,8.924a.422.422,0,0,1-.422.422H7.729a.422.422,0,0,1-.422-.422v-.843a.422.422,0,0,1,.422-.422h.422V9.837H7.729a.422.422,0,0,1-.422-.422V8.573a.422.422,0,0,1,.422-.422H9.978a.422.422,0,0,1,.422.422v3.513h.422a.422.422,0,0,1,.422.422Z" transform="translate(-0.563 -0.563)" fill="#212b44"/>
</svg>
