<svg xmlns="http://www.w3.org/2000/svg" width="32.699" height="40.091" viewBox="0 0 32.699 40.091"><g transform="translate(-88.247 6837)"><g transform="translate(89 -6837)"><path d="M172.246,7.6v5.3a1.152,1.152,0,0,1-2.3,0V7.6a5.306,5.306,0,0,0-5.3-5.3h-.01a5.306,5.306,0,0,0-5.29,5.3v5.3a1.152,1.152,0,0,1-2.3,0V7.6A7.613,7.613,0,0,1,164.631,0h.01A7.613,7.613,0,0,1,172.246,7.6Z" transform="translate(-149.045)" fill="#2e7c86"/><path d="M263.487,7.6v5.3a1.152,1.152,0,0,1-2.3,0V7.6a5.306,5.306,0,0,0-5.3-5.3h-.01V0h.01A7.613,7.613,0,0,1,263.487,7.6Z" transform="translate(-240.287)" fill="#45b5af"/><path d="M82.51,130.531a6.426,6.426,0,0,1-4.7,2.053H59.429a6.406,6.406,0,0,1-6.387-6.9L54.8,103.544A2.766,2.766,0,0,1,57.545,101H79.694a2.766,2.766,0,0,1,2.746,2.543L84.2,125.685A6.423,6.423,0,0,1,82.51,130.531Z" transform="translate(-53.023 -93.243)" fill="#fff" stroke="#2e7c86" stroke-width="1.5"/></g><path d="M194.774,251.861l-5.2,5.2-.758.758a1.152,1.152,0,0,1-1.63,0l-2.793-2.793a1.152,1.152,0,1,1,1.629-1.629L188,255.376l1.573-1.573,3.572-3.572a1.152,1.152,0,1,1,1.629,1.63Z" transform="translate(-84.986 -7068.743)" fill="#45b5af"/><path d="M261.075,250.232a1.153,1.153,0,0,1,0,1.63l-5.2,5.2V253.8l3.572-3.572A1.153,1.153,0,0,1,261.075,250.232Z" transform="translate(-151.287 -7068.744)" fill="#2e7c86"/></g></svg>