<svg xmlns="http://www.w3.org/2000/svg" width="36.5" height="36.019" viewBox="0 0 36.5 36.019"><g transform="translate(-63 -120.213)"><g transform="translate(63 119)"><rect width="33" height="31" transform="translate(2 5)" fill="#fff"/><rect width="31.704" height="1.027" transform="translate(2.194 13.063)" fill="#45b5af" stroke="#45b5af" stroke-width="1"/><path d="M34.368,36.884H4.672a3.4,3.4,0,0,1-3.4-3.4V6.592a3.4,3.4,0,0,1,3.4-3.4h29.7a3.4,3.4,0,0,1,3.4,3.4v26.89A3.4,3.4,0,0,1,34.368,36.884ZM4.672,6.269a.306.306,0,0,0-.306.289V33.482a.323.323,0,0,0,.306.306h29.7a.323.323,0,0,0,.306-.306V6.592a.306.306,0,0,0-.306-.323Z" transform="translate(-1.27 0.348)" fill="#45b5af"/><g transform="translate(-35 -390)"><path d="M184.985,109.753h-3.418v-3.418a.684.684,0,0,0-.684-.684h-1.367a.684.684,0,0,0-.684.684v3.418h-3.418a.684.684,0,0,0-.684.684v.684l4.53.939.939,4.53h.684a.684.684,0,0,0,.684-.684v-3.418h3.418a.684.684,0,0,0,.684-.684v-1.367A.684.684,0,0,0,184.985,109.753Z" transform="translate(-127.159 302.236)" fill="#1bafab"/><path d="M174.73,170.667v.684a.684.684,0,0,0,.684.684h3.418v3.418a.684.684,0,0,0,.684.684h.684v-4.1a1.367,1.367,0,0,0-1.367-1.367Z" transform="translate(-127.159 242.689)" fill="#2e7c86"/></g></g><path d="M106.3,2.354a2.354,2.354,0,1,0-4.709,0V7.063a2.354,2.354,0,1,0,4.709,0,.785.785,0,1,0-1.57,0,.785.785,0,1,1-1.57,0V2.354a.785.785,0,1,1,1.57,0h1.57Z" transform="translate(-28.466 120.213)" fill="#2e7c86"/><path d="M106.3,2.354a2.354,2.354,0,1,0-4.709,0V7.063a2.354,2.354,0,1,0,4.709,0,.785.785,0,1,0-1.57,0,.785.785,0,1,1-1.57,0V2.354a.785.785,0,1,1,1.57,0h1.57Z" transform="translate(-18.466 120.213)" fill="#2e7c86"/></g></svg>