<svg xmlns="http://www.w3.org/2000/svg" width="32.815" height="43.069" viewBox="0 0 32.815 43.069"><g transform="translate(-60.952)"><path d="M122.857,73.143h-.684L93.46,108.692v.684a.684.684,0,0,0,.684.684h28.713a.684.684,0,0,0,.684-.684V73.827A.684.684,0,0,0,122.857,73.143Z" transform="translate(-29.773 -66.99)" fill="#1bafab"/><path d="M94.144,73.143a.684.684,0,0,0-.684.684v34.866h26.662a2.051,2.051,0,0,0,2.051-2.051v-33.5Z" transform="translate(-29.773 -66.99)" fill="#2e7c86"/><path d="M97.792,40.635H69.763a.684.684,0,0,0-.684.684V76.184a.684.684,0,0,0,.684.684H97.792a.684.684,0,0,0,.684-.684V41.319A.684.684,0,0,0,97.792,40.635Z" transform="translate(-7.443 -37.217)" fill="#fff"/><path d="M105.689,2.051a2.051,2.051,0,1,0-4.1,0v4.1a2.051,2.051,0,1,0,4.1,0,.684.684,0,0,0-1.367,0,.684.684,0,1,1-1.367,0v-4.1a.684.684,0,1,1,1.367,0l.707.588Z" transform="translate(-37.217)" fill="#1bafab"/><path d="M184.985,109.753h-3.418v-3.418a.684.684,0,0,0-.684-.684h-1.367a.684.684,0,0,0-.684.684v3.418h-3.418a.684.684,0,0,0-.684.684v.684l4.53.939.939,4.53h.684a.684.684,0,0,0,.684-.684v-3.418h3.418a.684.684,0,0,0,.684-.684v-1.367A.684.684,0,0,0,184.985,109.753Z" transform="translate(-104.207 -96.764)" fill="#1bafab"/><path d="M197.213,293.938H183.541a.684.684,0,0,1,0-1.367h13.673a.684.684,0,0,1,0,1.367Z" transform="translate(-111.65 -267.96)" fill="#1bafab"/><path d="M120.576,293.938h-2.051a.684.684,0,1,1,0-1.367h2.051a.684.684,0,0,1,0,1.367Z" transform="translate(-52.104 -267.96)" fill="#2e7c86"/><path d="M197.213,342.7H183.541a.684.684,0,1,1,0-1.367h13.673a.684.684,0,1,1,0,1.367Z" transform="translate(-111.65 -312.62)" fill="#1bafab"/><path d="M197.213,391.462H183.541a.684.684,0,0,1,0-1.367h13.673a.684.684,0,1,1,0,1.367Z" transform="translate(-111.65 -357.28)" fill="#1bafab"/><path d="M120.576,342.7h-2.051a.684.684,0,1,1,0-1.367h2.051a.684.684,0,1,1,0,1.367Z" transform="translate(-52.104 -312.62)" fill="#2e7c86"/><path d="M120.576,391.462h-2.051a.684.684,0,1,1,0-1.367h2.051a.684.684,0,1,1,0,1.367Z" transform="translate(-52.104 -357.28)" fill="#2e7c86"/><path d="M66.421,76.184a4.1,4.1,0,0,1-4.1-4.1V40.635h-.684a.684.684,0,0,0-.684.684V76.868a.684.684,0,0,0,.684.684H90.349a.684.684,0,0,0,.684-.684v-.684Z" transform="translate(0 -37.217)" fill="#e0e3f1"/><path d="M174.73,170.667v.684a.684.684,0,0,0,.684.684h3.418v3.418a.684.684,0,0,0,.684.684h.684v-4.1a1.367,1.367,0,0,0-1.367-1.367Z" transform="translate(-104.207 -156.311)" fill="#2e7c86"/><path d="M134.1,24.381h1.367v1.367H134.1Z" transform="translate(-66.99 -22.33)" fill="#1bafab"/></g></svg>