<svg xmlns="http://www.w3.org/2000/svg" width="43.9" height="31.082" viewBox="0 0 43.9 31.082"><g transform="translate(0 -79.935)"><g transform="translate(0 80.939)"><path d="M49.842,92.306c-.066-1.625-.535-4.752,2.075-7.713,1.293-1.467,2.52-2.776,3.825-3.182a10.525,10.525,0,0,1,2.386-.45c4.524-.306,8.049,2.987,9,3.982a.338.338,0,0,0,.5-.008c.924-1.054,4.157-4.293,8.868-3.974a9.754,9.754,0,0,1,6.554,3.092c2.61,2.961,2.356,6.8,2.248,8.421-.538,8.133-10.18,14.176-15.12,16.753a10.5,10.5,0,0,1-2.6.726.67.67,0,0,1-.543,0C65.832,109.421,50.211,101.46,49.842,92.306Z" transform="translate(-45.372 -80.939)" fill="#fff" stroke="#4bbbbb" stroke-width="2"/><g transform="translate(3.91 0.473)"><path d="M65.168,114.106S47.509,105.094,47.14,95.94c-.066-1.625-.361-5.46,2.248-8.421a8.555,8.555,0,0,1,1.341-1.228,9.092,9.092,0,0,0-4.167,2.641c-2.61,2.961-2.314,6.8-2.248,8.421.369,9.154,16.506,17.478,17.716,18.01a.675.675,0,0,0,.271.058.7.7,0,0,0,.272-.058c.783-.325,2.137-1.022,2.137-1.022Z" transform="translate(-44.27 -86.292)" fill="#1bafab"/></g><g transform="translate(0.32 7.318)"><path d="M22.455,177.851a1.162,1.162,0,0,1-1.4-.144,2.542,2.542,0,0,1-.5-.59l-4.806-8.7c-.061-.112-.348-.106-.458-.08a.262.262,0,0,0-.162.115l-.537.841-.7.837a1.358,1.358,0,0,1-1.144.627H4.7c-.725,0-1.076-.876-1.076-1.168,0-.06.068-1.057.657-1.229a1.358,1.358,0,0,1,.38-.054h7.187a.265.265,0,0,0,.223-.122l2.238-3.5a1.358,1.358,0,0,1,2.336.079l4.873,8.912a.265.265,0,0,0,.464,0l5.105-9.193a1.358,1.358,0,0,1,2.314-.1L33.72,170.8a.265.265,0,0,0,.417.03l1.873-2.077a1.357,1.357,0,0,1,1.008-.448H45.81a1.385,1.385,0,0,1,1.392,1.247c0,.015-.174.207-.174.222.037.78-.585,1.07-1.356,1.07l-7.709-.015a1.422,1.422,0,0,0-.42.28L35.7,173.159l-.935.771a1.358,1.358,0,0,1-2.135-.152L28.874,168.1c-.047-.07-.362-.113-.436-.121a.264.264,0,0,0-.261.135l-4.732,8.52-.693.93a1.017,1.017,0,0,1-.3.285Z" transform="translate(-3.627 -163.782)" fill="#2e7c86"/></g><g transform="translate(0 11.519)"><path d="M387.6,230.69a.265.265,0,0,1,.2-.088h8.109a1.358,1.358,0,0,0,1.353-1.467h0a1.353,1.353,0,0,1-.38.055l-7.156.015a1.767,1.767,0,0,0-1.309.584Z" transform="translate(-353.363 -227.563)" fill="#79adb3"/><path d="M291.96,216.319a1.358,1.358,0,0,1-2.135-.152l-2.99-4.249a1.325,1.325,0,0,0-1.07-.562l-1.243-.013a.26.26,0,0,1,.191.114l4,5.947a1.358,1.358,0,0,0,2.135.152l2.782-3.085" transform="translate(-259.39 -211.343)" fill="#79adb3"/><path d="M10.4,216.891H2.367a1.384,1.384,0,0,1-1.39-1.247A1.357,1.357,0,0,0,0,217.012,1.383,1.383,0,0,0,1.4,218.3H9.433a1.358,1.358,0,0,0,1.144-.627l.712-1.115A1.357,1.357,0,0,1,10.4,216.891Z" transform="translate(0 -215.264)" fill="#79adb3"/><path d="M142.8,223.37h0a1.358,1.358,0,0,1-1.187-.706l-3.93-7.167a1.325,1.325,0,0,0-1.162-.688h-.88a.621.621,0,0,0-.288.057.263.263,0,0,1,.319.121l4.97,9.09a1.358,1.358,0,0,0,1.187.706h0a1.358,1.358,0,0,0,1.187-.7l.516-.93A1.356,1.356,0,0,1,142.8,223.37Z" transform="translate(-123.395 -214.502)" fill="#79adb3"/></g></g></g></svg>