<svg xmlns="http://www.w3.org/2000/svg" width="40.729" height="38.191" viewBox="0 0 40.729 38.191"><g transform="translate(-1 -4.93)"><path d="M29.571,30.246A1.647,1.647,0,0,1,27.924,28.6V26.378c0-5.921-6.366-10.511-11.824-10.511S4.275,20.383,4.275,26.378V28.6A1.647,1.647,0,0,1,1,28.6V26.378C1,18.4,8.957,12.5,16.1,12.5s15.118,5.9,15.118,13.8V28.6a1.647,1.647,0,0,1-1.647,1.647Z" transform="translate(0 10.153)" fill="#45b5af"/><path d="M17.405,19.972a1.647,1.647,0,0,1-1.628-1.388,1.665,1.665,0,0,1,1.388-1.85,5.792,5.792,0,0,0-.907-11.51H14.907a1.647,1.647,0,1,1,0-3.294h1.351a9.086,9.086,0,0,1,1.406,18.06Z" transform="translate(10.427 3)" fill="#2e7c86"/><g transform="translate(9 8.706)" fill="#fff" stroke="#e0e3f1" stroke-width="1"><circle cx="7" cy="7" r="7" stroke="none"/><circle cx="7" cy="7" r="6.5" fill="none"/></g><path d="M28.514,27.663a1.647,1.647,0,0,1-1.647-1.647V23.7c0-5.551-5.551-9.992-10.733-10.511a1.647,1.647,0,1,1,.333-3.275c6.606.666,13.693,6.366,13.693,13.786v2.313A1.647,1.647,0,0,1,28.514,27.663Z" transform="translate(11.568 9.78)" fill="#2e7c86"/><path d="M13.6,23.159A9.659,9.659,0,1,1,23.259,13.5,9.659,9.659,0,0,1,13.6,23.159Zm0-16.025A6.366,6.366,0,1,0,19.965,13.5,6.366,6.366,0,0,0,13.6,7.134Z" transform="translate(2.5 2.788)" fill="#45b5af"/><path d="M11.807,0c6.521,0,11.807,4.706,11.807,10.512S0,16.317,0,10.512,5.286,0,11.807,0Z" transform="translate(4.289 25.968)" fill="#2e7c86"/><path d="M11.807,0c6.521,0,11.807,4.873,11.807,10.885S0,16.9,0,10.885,5.286,0,11.807,0Z" transform="translate(4.289 27.728)" fill="#fff"/></g></svg>