<svg xmlns="http://www.w3.org/2000/svg" width="36" height="35.349" viewBox="0 0 36 35.349"><g transform="translate(0 -0.376)"><path d="M184.14,92A3.136,3.136,0,0,0,181,95.14v3.14h6.28V95.14A3.136,3.136,0,0,0,184.14,92Z" transform="translate(-168.371 -85.581)" fill="#fedb41"/><path d="M229.14,95.14v3.14H226V92A3.136,3.136,0,0,1,229.14,95.14Z" transform="translate(-210.231 -85.581)" fill="#fcbf29"/><path d="M35.725,166.653,33.632,167.7l2.093,1.047v4.187H0v-6.28l2.163-1.047L0,164.56V152H26.947l-1.758,8.373,5.945,2.093h4.591Z" transform="translate(0 -141.394)" fill="#fd3018"/><path d="M245.956,166.653l-2.093,1.047,2.093,1.047v4.187H226V152h11.178l-1.758,8.373,5.945,2.093h4.591Z" transform="translate(-210.231 -141.394)" fill="#e61e14"/><path d="M127.28,244.093h-2.093V242h-2.093v2.093H121v2.093h2.093v2.093h2.093v-2.093h2.093Z" transform="translate(-112.557 -225.114)" fill="#efe6de"/><g transform="translate(6.656)"><rect width="2" height="4" transform="translate(8.344 0.376)" fill="#fea832"/><rect width="4.44" height="2.093" transform="translate(3.14 7.159) rotate(-135)" fill="#fea832"/></g><rect width="2.093" height="4.44" transform="translate(21.742 7.159) rotate(-135)" fill="#fe9923"/><path d="M65.187,392a4.187,4.187,0,1,0,4.187,4.186A4.2,4.2,0,0,0,65.187,392Z" transform="translate(-56.744 -364.648)" fill="#57555c"/><path d="M125.187,396.186A4.2,4.2,0,0,1,121,400.373V392A4.2,4.2,0,0,1,125.187,396.186Z" transform="translate(-112.557 -364.648)" fill="#3c3a41"/><path d="M93.093,422a2.093,2.093,0,1,0,2.093,2.093A2.1,2.1,0,0,0,93.093,422Z" transform="translate(-84.65 -392.555)" fill="#e1e4fb"/><path d="M123.093,424.093A2.1,2.1,0,0,1,121,426.186V422A2.1,2.1,0,0,1,123.093,424.093Z" transform="translate(-112.557 -392.555)" fill="#c5c9f7"/><path d="M335.186,392a4.187,4.187,0,1,0,4.187,4.186A4.2,4.2,0,0,0,335.186,392Z" transform="translate(-307.904 -364.648)" fill="#57555c"/><path d="M395.186,396.186A4.2,4.2,0,0,1,391,400.373V392A4.2,4.2,0,0,1,395.186,396.186Z" transform="translate(-363.718 -364.648)" fill="#3c3a41"/><path d="M363.093,422a2.093,2.093,0,1,0,2.093,2.093A2.1,2.1,0,0,0,363.093,422Z" transform="translate(-335.811 -392.555)" fill="#e1e4fb"/><path d="M393.093,424.093A2.1,2.1,0,0,1,391,426.186V422A2.1,2.1,0,0,1,393.093,424.093Z" transform="translate(-363.718 -392.555)" fill="#c5c9f7"/><path d="M301,162.466h10.128L306.941,152,301,155.293Z" transform="translate(-279.998 -141.394)" fill="#3c3a41"/><rect width="4" height="2" transform="translate(32 25.376)" fill="#fcbf29"/><rect width="5" height="3" transform="translate(0 22.376)" fill="#fedb41"/><rect width="2" height="4" transform="translate(15 0.376)" fill="#fe9923"/></g></svg>