<svg xmlns="http://www.w3.org/2000/svg" width="24.721" height="24.722" viewBox="0 0 24.721 24.722"><g transform="translate(-0.01)"><path d="M12.361,0A12.361,12.361,0,1,1,0,12.361,12.361,12.361,0,0,1,12.361,0Z" transform="translate(0.01 0)" fill="#91c6e0"/><path d="M99.307,36V48.589L99.3,48.6a12.343,12.343,0,0,1-2.11,1.563q-.49.289-1.009.532a12.331,12.331,0,0,1-1.16.474,12.161,12.161,0,0,1-1.665.455q-.5.1-1.009.157-.273.032-.55.051c-.25.017-.5.027-.757.029h-.105q-.328,0-.651-.017-.384-.02-.761-.063-.511-.058-1.009-.157a12.211,12.211,0,0,1-2.825-.929l-.1-.045q-.386-.185-.757-.4l-.156-.09q-.306-.179-.6-.376a12.348,12.348,0,0,1-1.51-1.187l-.009-.008V36L84.676,34.1l1.009-.9,1.86-1.662.965-.863,1.009-.9,1.413-1.262,1.413,1.262,1.009.9.967.864L96.179,33.2l1.009.9Z" transform="translate(-78.561 -27.136)" fill="#fff"/><path d="M99.307,36V39.46l-8.375-6.812L82.557,39.46V36L84.676,34.1l1.009-.9,1.86-1.662.965-.863,1.009-.9,1.413-1.262,1.413,1.262,1.009.9.967.864L96.179,33.2l1.009.9Z" transform="translate(-78.561 -27.136)" fill="#dfe0e2"/><path d="M14.192,12.345,11.964,9.6,23.748.021,35.531,9.6,33.3,12.345,23.748,4.573Z" transform="translate(-11.377 -0.02)" fill="#384e99"/><g transform="translate(6.619 0.627)"><rect width="3.834" height="11.503" transform="translate(3.834 8.941)" fill="#ff5b47"/><rect width="11.503" height="3.834" transform="translate(0 12.776)" fill="#ff5b47"/><path d="M369.385,18.347c0,.04,0,.08,0,.12.07,3.778,5.755,3.778,5.824,0q0-.06,0-.12a6.372,6.372,0,0,0-2.913-5.355A6.372,6.372,0,0,0,369.385,18.347Z" transform="translate(-358.159 -12.992)" fill="#ff5b47"/></g><path d="M372.3,21.3a2.791,2.791,0,0,1-2.912-2.833c0-.04,0-.08,0-.12a6.372,6.372,0,0,1,2.913-5.355,10.571,10.571,0,0,0-1.206,5.355c0,.04,0,.08,0,.12C371.107,20.359,371.7,21.3,372.3,21.3Z" transform="translate(-351.539 -12.368)" fill="#e53e2d"/><path d="M450.768,94.977a.678.678,0,1,1-1.316-.147c.051-.452.507-1.868.87-1.827S450.818,94.524,450.768,94.977Z" transform="translate(-427.734 -88.511)" fill="#fc8980"/></g></svg>