<svg xmlns="http://www.w3.org/2000/svg" width="15.25" height="18.769" viewBox="0 0 15.25 18.769"><g transform="translate(-48)"><path d="M61.784,2.409H58.558v-.6A1.784,1.784,0,0,0,56.8,0H54.452a1.784,1.784,0,0,0-1.76,1.807v.6H49.466A1.486,1.486,0,0,0,48,3.914v1.2a.6.6,0,0,0,.587.6H62.663a.6.6,0,0,0,.587-.6v-1.2A1.486,1.486,0,0,0,61.784,2.409Zm-7.918-.6a.6.6,0,0,1,.587-.6H56.8a.6.6,0,0,1,.587.6v.6H53.865Z" fill="#fff"/><path d="M73.547,184a.186.186,0,0,0-.182.2l.482,10.427a1.775,1.775,0,0,0,1.751,1.721h8.874a1.775,1.775,0,0,0,1.751-1.721L86.7,184.2a.186.186,0,0,0-.182-.2Zm8.825,1.506a.585.585,0,1,1,1.169,0v7.829a.585.585,0,1,1-1.169,0Zm-2.922,0a.585.585,0,1,1,1.169,0v7.829a.585.585,0,1,1-1.169,0Zm-2.922,0a.585.585,0,1,1,1.169,0v7.829a.585.585,0,1,1-1.169,0Z" transform="translate(-24.41 -177.576)" fill="#fff"/></g></svg>