<svg xmlns="http://www.w3.org/2000/svg" width="14" height="16" viewBox="0 0 14 16"><path d="M9,4.25V0H2.75A.748.748,0,0,0,2,.75V8H.25A.251.251,0,0,0,0,8.25v.5A.251.251,0,0,0,.25,9h4.4a.255.255,0,0,1,.225.138L5.5,10.381,7.275,6.828a.25.25,0,0,1,.447,0L8.806,9H11a.5.5,0,0,1,0,1H8.191L7.5,8.619,5.725,12.172a.25.25,0,0,1-.447,0L4.191,10H2v5.25a.748.748,0,0,0,.75.75h10.5a.748.748,0,0,0,.75-.75V5H9.75A.752.752,0,0,1,9,4.25Zm4.781-.969L10.722.219A.749.749,0,0,0,10.191,0H10V4h4V3.809A.748.748,0,0,0,13.781,3.281Z" fill="#fff"/></svg>