<svg xmlns="http://www.w3.org/2000/svg" width="23.712" height="17.236" viewBox="0 0 23.712 17.236">
  <g id="patient" transform="translate(0 -69.915)">
    <path id="Path_1366" data-name="Path 1366" d="M28.907,93.967H9.132a1.621,1.621,0,0,1-1.621-1.621v-13.3a1.621,1.621,0,0,1,1.621-1.621H28.907a1.621,1.621,0,0,1,1.621,1.621v13.3A1.621,1.621,0,0,1,28.907,93.967Z" transform="translate(-7.163 -7.163)" fill="#fff"/>
    <path id="Path_1367" data-name="Path 1367" d="M88.978,144.613H76.432a.556.556,0,0,1-.556-.556v-7.015a.556.556,0,0,1,.556-.556H88.978a.556.556,0,0,1,.556.556v7.015A.556.556,0,0,1,88.978,144.613Z" transform="translate(-72.362 -63.488)" fill="#1bafab"/>
    <path id="Path_1368" data-name="Path 1368" d="M88.977,136.486h-.948v6.066a.557.557,0,0,1-.557.557h-11.6v.948a.557.557,0,0,0,.557.557H88.977a.557.557,0,0,0,.557-.557v-7.014A.557.557,0,0,0,88.977,136.486Z" transform="translate(-72.362 -63.488)" fill="#2e7c86"/>
    <path id="Path_1369" data-name="Path 1369" d="M28.9,77.426H27.867V89.682a1.623,1.623,0,0,1-1.623,1.623H7.511v1.038a1.623,1.623,0,0,0,1.623,1.623H28.9a1.623,1.623,0,0,0,1.623-1.623V79.049A1.623,1.623,0,0,0,28.9,77.426Z" transform="translate(-7.163 -7.163)" fill="#e8e8e8"/>
    <circle id="Ellipse_158" data-name="Ellipse 158" cx="1.07" cy="1.07" r="1.07" transform="translate(11.224 82.734)" fill="#89c6fc"/>
    <circle id="Ellipse_159" data-name="Ellipse 159" cx="1.07" cy="1.07" r="1.07" transform="translate(3.413 82.734)" fill="#fc8086"/>
    <circle id="Ellipse_160" data-name="Ellipse 160" cx="1.07" cy="1.07" r="1.07" transform="translate(6.069 82.734)" fill="#fbd307"/>
    <path id="Path_1370" data-name="Path 1370" d="M244.62,347.636a1.07,1.07,0,0,1-1.328,1.328,1.07,1.07,0,1,0,1.328-1.328Z" transform="translate(-232.024 -264.859)" fill="#62b4fd"/>
    <path id="Path_1371" data-name="Path 1371" d="M75.961,347.636a1.07,1.07,0,0,1-1.328,1.328,1.07,1.07,0,1,0,1.328-1.328Z" transform="translate(-71.176 -264.859)" fill="#fa4954"/>
    <path id="Path_1372" data-name="Path 1372" d="M133.3,347.636a1.07,1.07,0,0,1-1.328,1.328,1.07,1.07,0,1,0,1.328-1.328Z" transform="translate(-125.86 -264.859)" fill="#e6b700"/>
    <path id="Path_1373" data-name="Path 1373" d="M23.365,84.832a.348.348,0,0,0-.348.348,1.277,1.277,0,0,1-1.275,1.275H1.971A1.277,1.277,0,0,1,.7,85.18V71.886a1.277,1.277,0,0,1,1.275-1.275H13.034a.348.348,0,1,0,0-.7H1.971A1.973,1.973,0,0,0,0,71.886V85.18a1.973,1.973,0,0,0,1.971,1.971h19.77a1.973,1.973,0,0,0,1.971-1.971A.348.348,0,0,0,23.365,84.832Z" fill="#2e7c86"/>
    <path id="Path_1374" data-name="Path 1374" d="M317.07,69.915h-7.051a.348.348,0,1,0,0,.7h7.051a1.277,1.277,0,0,1,1.275,1.275V83.512a.348.348,0,1,0,.7,0V71.886A1.973,1.973,0,0,0,317.07,69.915Z" transform="translate(-295.329 0)" fill="#1bafab"/>
    <path id="Path_1375" data-name="Path 1375" d="M82.718,136.891v-7.014a.905.905,0,0,0-.9-.9h-9.69a.348.348,0,1,0,0,.7h9.69a.209.209,0,0,1,.209.209v2.978H80.6l-.55-.55a.487.487,0,0,0-.689,0l-1.459,1.459-.559-.559a.487.487,0,0,0-.689,0l-.943.943-2.506-2.506a.487.487,0,0,0-.689,0l-1.213,1.213H69.061v-2.978a.209.209,0,0,1,.209-.209h1.124a.348.348,0,0,0,0-.7H69.269a.905.905,0,0,0-.9.9v7.014a.905.905,0,0,0,.9.9H81.814A.905.905,0,0,0,82.718,136.891Zm-13.658,0v-3.34h2.332a.484.484,0,0,0,.344-.143l1.127-1.127,2.506,2.506a.488.488,0,0,0,.689,0l.943-.943.559.559a.488.488,0,0,0,.689,0l1.459-1.459.464.464a.484.484,0,0,0,.344.143h1.506v3.34a.209.209,0,0,1-.209.209H69.269A.209.209,0,0,1,69.061,136.891Z" transform="translate(-65.199 -56.323)"/>
  </g>
</svg>
