<svg xmlns="http://www.w3.org/2000/svg" width="16.132" height="16.132" viewBox="0 0 16.132 16.132"><path d="M15.836,7.351,8.781.3A1.011,1.011,0,0,0,7.351.3L.3,7.351a1.011,1.011,0,0,0,0,1.429l7.056,7.056a1.01,1.01,0,0,0,1.429,0l7.056-7.056a1.011,1.011,0,0,0,0-1.429Zm-3.182.4L10,10.2a.252.252,0,0,1-.423-.185V8.318H6.553v2.017a.252.252,0,0,1-.252.252H5.293a.252.252,0,0,1-.252-.252V7.814A1.008,1.008,0,0,1,6.049,6.806H9.578V5.113A.252.252,0,0,1,10,4.928l2.653,2.449a.252.252,0,0,1,0,.371Z" fill="#fff"/></svg>