<svg xmlns="http://www.w3.org/2000/svg" width="16.199" height="16.199" viewBox="0 0 16.199 16.199"><g transform="translate(-213.898 5298.268)"><path d="M11.1,3a8.1,8.1,0,1,0,8.1,8.1A8.092,8.092,0,0,0,11.1,3Z" transform="translate(210.898 -5279.069) rotate(-90)" fill="#fff"/><g transform="translate(193.007 -5318.998)"><path d="M28.8,33.607a4.8,4.8,0,1,1,4.628-6.1.5.5,0,1,1-.957.267,3.836,3.836,0,0,0-1.348-1.995,3.774,3.774,0,0,0-2.323-.79,3.81,3.81,0,0,0,0,7.621,3.774,3.774,0,0,0,2.323-.79,3.836,3.836,0,0,0,1.348-1.995.5.5,0,1,1,.957.267,4.837,4.837,0,0,1-1.7,2.515A4.76,4.76,0,0,1,28.8,33.607Z" transform="translate(0 0)" fill="#ebc008"/><path d="M299.314,35.976a.5.5,0,0,1-.14-.02l-2.816-.828a.5.5,0,0,1,.28-.954l2.215.651.131-2.356a.5.5,0,1,1,.992.055l-.166,2.982A.5.5,0,0,1,299.314,35.976Z" transform="translate(-266.375 -7.836)" fill="#ebc008"/></g></g></svg>